<mxfile host="app.diagrams.net" modified="2023-06-15T09:38:47.247Z" agent="Mozilla/5.0 (Macintosh; Intel Mac OS X 10_15_7) AppleWebKit/537.36 (KHTML, like Gecko) Chrome/114.0.0.0 Safari/537.36" etag="Uinx1Ad9xp065Btd2gLt" version="21.3.8" type="github" pages="6">
  <diagram id="Sc14ZII5uoRKNZlVD90k" name="concept">
    <mxGraphModel dx="1923" dy="1061" grid="0" gridSize="10" guides="1" tooltips="1" connect="1" arrows="1" fold="1" page="1" pageScale="1" pageWidth="1169" pageHeight="827" math="0" shadow="0">
      <root>
        <mxCell id="0" />
        <mxCell id="1" parent="0" />
        <mxCell id="puMBQeqeTpWvrjrb3OdP-1" value="Source" style="swimlane;" parent="1" vertex="1">
          <mxGeometry x="140" y="190" width="190" height="401" as="geometry">
            <mxRectangle x="10" y="190" width="110" height="30" as="alternateBounds" />
          </mxGeometry>
        </mxCell>
        <mxCell id="v-R775QLb7K6Q67dEHI1-1" value="Source Code &lt;br&gt;changed" style="html=1;outlineConnect=0;whiteSpace=wrap;fillColor=#d5e8d4;shape=mxgraph.archimate3.event;strokeColor=#82b366;" parent="puMBQeqeTpWvrjrb3OdP-1" vertex="1">
          <mxGeometry x="27" y="167" width="136" height="57" as="geometry" />
        </mxCell>
        <mxCell id="puMBQeqeTpWvrjrb3OdP-14" value="Git ..." style="swimlane;" parent="1" vertex="1">
          <mxGeometry x="360" y="190" width="190" height="401" as="geometry" />
        </mxCell>
        <mxCell id="7e_bq4CgVROszNn9BkB4-1" value="Source Code Commit" style="html=1;outlineConnect=0;whiteSpace=wrap;fillColor=#d5e8d4;shape=mxgraph.archimate3.application;appType=proc;archiType=rounded;strokeColor=#82b366;" parent="puMBQeqeTpWvrjrb3OdP-14" vertex="1">
          <mxGeometry x="15" y="166" width="160" height="58" as="geometry" />
        </mxCell>
        <mxCell id="puMBQeqeTpWvrjrb3OdP-15" value="Pipeline ..." style="swimlane;" parent="1" vertex="1">
          <mxGeometry x="580" y="190" width="190" height="401" as="geometry" />
        </mxCell>
        <mxCell id="FpccCggEMooWjYoVqN9N-2" value="Pipeline execution" style="html=1;outlineConnect=0;whiteSpace=wrap;fillColor=#d5e8d4;shape=mxgraph.archimate3.application;appType=proc;archiType=rounded;strokeColor=#82b366;" parent="puMBQeqeTpWvrjrb3OdP-15" vertex="1">
          <mxGeometry x="15" y="167" width="160" height="58" as="geometry" />
        </mxCell>
        <mxCell id="puMBQeqeTpWvrjrb3OdP-16" value="Target" style="swimlane;" parent="1" vertex="1">
          <mxGeometry x="810" y="190" width="190" height="401" as="geometry">
            <mxRectangle x="10" y="190" width="110" height="30" as="alternateBounds" />
          </mxGeometry>
        </mxCell>
        <mxCell id="FpccCggEMooWjYoVqN9N-5" value="Deployment / Feedback" style="html=1;outlineConnect=0;whiteSpace=wrap;fillColor=#d5e8d4;shape=mxgraph.archimate3.application;appType=proc;archiType=rounded;strokeColor=#82b366;" parent="puMBQeqeTpWvrjrb3OdP-16" vertex="1">
          <mxGeometry x="15" y="166" width="160" height="58" as="geometry" />
        </mxCell>
        <mxCell id="FpccCggEMooWjYoVqN9N-1" value="" style="edgeStyle=none;rounded=0;orthogonalLoop=1;jettySize=auto;html=1;fontSize=6;" parent="1" source="v-R775QLb7K6Q67dEHI1-1" target="7e_bq4CgVROszNn9BkB4-1" edge="1">
          <mxGeometry relative="1" as="geometry">
            <mxPoint x="332" y="104" as="sourcePoint" />
            <mxPoint x="332" y="201" as="targetPoint" />
          </mxGeometry>
        </mxCell>
        <mxCell id="FpccCggEMooWjYoVqN9N-3" value="" style="edgeStyle=none;rounded=0;orthogonalLoop=1;jettySize=auto;html=1;fontSize=6;" parent="1" source="7e_bq4CgVROszNn9BkB4-1" target="FpccCggEMooWjYoVqN9N-2" edge="1">
          <mxGeometry relative="1" as="geometry">
            <mxPoint x="313" y="395" as="sourcePoint" />
            <mxPoint x="385" y="395" as="targetPoint" />
          </mxGeometry>
        </mxCell>
        <mxCell id="FpccCggEMooWjYoVqN9N-4" value="" style="edgeStyle=none;rounded=0;orthogonalLoop=1;jettySize=auto;html=1;fontSize=6;" parent="1" source="FpccCggEMooWjYoVqN9N-2" target="FpccCggEMooWjYoVqN9N-5" edge="1">
          <mxGeometry relative="1" as="geometry">
            <mxPoint x="323" y="405" as="sourcePoint" />
            <mxPoint x="395" y="405" as="targetPoint" />
          </mxGeometry>
        </mxCell>
      </root>
    </mxGraphModel>
  </diagram>
  <diagram name="conceptProducts" id="7p2t3JZLU5xTMU9K9htR">
    <mxGraphModel dx="2115" dy="1167" grid="0" gridSize="10" guides="1" tooltips="1" connect="1" arrows="1" fold="1" page="1" pageScale="1" pageWidth="1169" pageHeight="827" math="0" shadow="0">
      <root>
        <mxCell id="eqY7StnmCgiGqUW9I_UC-0" />
        <mxCell id="eqY7StnmCgiGqUW9I_UC-1" parent="eqY7StnmCgiGqUW9I_UC-0" />
        <mxCell id="eqY7StnmCgiGqUW9I_UC-2" value="ServiceNow (source/DEV)" style="swimlane;" vertex="1" parent="eqY7StnmCgiGqUW9I_UC-1">
          <mxGeometry x="140" y="190" width="190" height="401" as="geometry">
            <mxRectangle x="10" y="190" width="110" height="30" as="alternateBounds" />
          </mxGeometry>
        </mxCell>
        <mxCell id="eqY7StnmCgiGqUW9I_UC-3" value="Source Code &lt;br&gt;changed" style="html=1;outlineConnect=0;whiteSpace=wrap;fillColor=#d5e8d4;shape=mxgraph.archimate3.event;strokeColor=#82b366;" vertex="1" parent="eqY7StnmCgiGqUW9I_UC-2">
          <mxGeometry x="27" y="167" width="136" height="57" as="geometry" />
        </mxCell>
        <mxCell id="eqY7StnmCgiGqUW9I_UC-4" value="GitHub" style="swimlane;" vertex="1" parent="eqY7StnmCgiGqUW9I_UC-1">
          <mxGeometry x="360" y="190" width="190" height="401" as="geometry" />
        </mxCell>
        <mxCell id="eqY7StnmCgiGqUW9I_UC-5" value="Source Code Commit" style="html=1;outlineConnect=0;whiteSpace=wrap;fillColor=#d5e8d4;shape=mxgraph.archimate3.application;appType=proc;archiType=rounded;strokeColor=#82b366;" vertex="1" parent="eqY7StnmCgiGqUW9I_UC-4">
          <mxGeometry x="15" y="166" width="160" height="58" as="geometry" />
        </mxCell>
        <mxCell id="eqY7StnmCgiGqUW9I_UC-6" value="Azure DevOps" style="swimlane;" vertex="1" parent="eqY7StnmCgiGqUW9I_UC-1">
          <mxGeometry x="580" y="190" width="204" height="401" as="geometry" />
        </mxCell>
        <mxCell id="eqY7StnmCgiGqUW9I_UC-7" value="Pipeline execution" style="html=1;outlineConnect=0;whiteSpace=wrap;fillColor=#d5e8d4;shape=mxgraph.archimate3.application;appType=proc;archiType=rounded;strokeColor=#82b366;" vertex="1" parent="eqY7StnmCgiGqUW9I_UC-6">
          <mxGeometry x="15" y="167" width="160" height="58" as="geometry" />
        </mxCell>
        <mxCell id="CrnUySWLE13TP5zJjdzL-0" value="" style="shape=image;verticalLabelPosition=bottom;labelBackgroundColor=default;verticalAlign=top;aspect=fixed;imageAspect=0;image=data:image/png,iVBORw0KGgoAAAANSUhEUgAAAOEAAADhCAMAAAAJbSJIAAAA7VBMVEX///9LMsOAgPIaGhoAAAA3Eb/19fs6GL/BuuhrWcz5+P1HKsPOzs4MDAwzCL4REREWFhY+H8BBJMGOgdcoKChlZWX09PR3d/Hd3d2JifOKiorq6vw6OjpILsJqampPT0+IetXw7vrf2/O1reRnVMvRzO6mnN+Th9lTO8Z2ZtDl4vbb1/Kdkty0rOSbm5vNyO1+b9JgTMlaRMhpVsx0dHS0tLSlm95xYM58bdGZjtvFvuq9vfjV1fqTk/S2tvfOzvpzc/GcnPWurveAgICYmJhSUlLa2tqkpPXFxfmOjvPDw8MzMzPq6uolJSXIyMhCgMSNAAAOVklEQVR4nO2dDVvaOhTHQVuKVBiJEx2sSpE3QQbiG7rt7t6563an2/f/ODdpeelL2iZpktY9/J9nzxBKmx9pck7OSZpCYautttpqq9em3vA26yJIVWtmmGA+zboY8nQBoLGH/t21si6JHJUhwPVnzwxYG5SyLo14dboGNPvOy94lenmWcXlEq9Q2oN62V39OIDQue1kWSLQmNdQAO543KveIePHHNMfpHIBhOfDm6NyA8CKT8ojW6FyHtYtK+INpEYE/qC+QYFUOdGjMbPKHfdQcux3yZ69FZxYEl+PIj+02gODgFVsObBZAvFkYIyMCJ4rKI1qjhQ7BgNAA/SoPUXN8jY5cBbto5yPaI1+f5SgXGWqmhWv7Xmp5RGt8ydi6UIsFIGgy8yu3h4ywEFE6K8b2urkStnKX7FauhC1n+xVYjqnJ7ak43k9fcHlEa3SHvc1ECxGlB+TBzvPsyFXu9bQjhj46A5WNyUQTZNe6aUd9zkjygPsukCnsolkiRu44GiDkRGJlL9BPLyr6UjaBkTPLUblAPf25QMfrAkJ9liNHDrtogqOgrRkaltzmpDmO91BhxJux3twIxz6ykN2uQUPOIPYMNcdu5s2xbwaiaCJVGnA4uGKFo2imTB9khFqAmV0IYLSnQyg7lYR/xGI2IQDnFoqKookUbghZOHJn6LpzNYF5pzPjd+f51BsaoKjOs0IGCUCVjpxjju+VDlbLQ5WW4wJA/U51w3AcQzUhACfRmdgA7RmosUjvJvaXjnMvPwQw7gJoJRuoHjCLbLL05EQUjshJDh4HEp2RsqHFCIikU5R9IrmB9FGvfUfjorVZa9CpxSHFmSsDibMAHkiJTqLGgAOwWIRUjaxzZwCKdsKu0Z0OdcoBW5fjHsUy6DykqQXEzwJww7WULlrZ4AMsmm3K4vQh1EWGFFADj090+lUZclYhqkTaaziJA3GOHI6iMfhMt3Gt0AQw5lNrj/oqY2Q5imJCADjWDu7pf65WDKClL6YXRkxHazCU+WwoJCJHn+hcaRYNAC6xyRstjMjb2LIYrlTCZUsbAmBKdDoa61Glh8aqj+8NQRQjW0gL3V+AzsZElZY10VmIthSm4bXTEzOqOQK2LjKVI8eX6CRbCgsEfK3SIMJzpbYYK6F+3uBz5Lim85AthQWK4XAV8k2I1Q1YO49SG9lqhq5wqQe+ROc96eZbzboMXWNOao7WnPmqyN8CLL1wwfl9ockRU28RuhkrprubQMIvwlhWR+jHYrIcAx3WuPIiYUthxcce7AM9VI3WkMNXqeDUKq1bWSjVLL6QSC9UhaQG6FdnL9Qc+SZl2m1Lp639kq7zDcAuA2U1Ic2d/jAMekGQz6neo76/eQnP/CW1iBlAwpkrtwFHzpzxXF4+YcUHSG6A9ve/3xEskN3236o6VyORTuizFJAUL6583EE6+k7oEMZXXsthdTmuL51w5KlCs3ZBOMOnnaMdR0cfCd8vey0Hj8WQTni+bkuWQWqAo89LPoy48yV8ABrGbE5R5LAYkgmn6yqEpHhx6euGz2H8THAlW4v1rcpjMSQTDmPL9mPHD+g0R9L8/XUt6uzjPrmEk3UVgnDBP70L8UU1x7VXZC5YiyCX0LbWPaEZJLT/IfJhxHefgic6WFeiwRwvlEo42PSDQcK/ovgcxn8CfdKGkN1iyCTseC2Fj/DLURwg0t9ffdfaEBYT1jGEJZNwzyQTdj4n8OFq3PnhOZOH0IKMFkMi4dQ7pvAQfkzmcxg/b07lIWS2GPIIK3OLTPiOChDdqZvG6CUsGmzhF3mEE5/LzUF4FEHIaDGkEXoshWBCRoshjbDtj7WIJKRKmq4li7ATCF2IJGSzGLII70yJhJbFUBJJhA/BILdQwiJkWPAlh9BvKcQTFiG9xZBD2A9lCwUTmufZElbCiRjBhAxRKSmEPfmE5iBTwnI4pS2csJ0pYdAYSiCkz/HK6WmCgXwJ7ZA6YCOHMNwQRVsL+iGUJIsfmqQnlpAl1SaJsBXMcYolZAl+y/JLL6BEQuuKviDyRk/BpKFIQqYklDTCgE0UScg29UReFONK2hifLRksj7BjSCJkXNUoMZroDx9xxNps4qlYZ9ZIJCxFxEs/JQW8l4BfN6fyEhqMM5Zkxrz7EVH9yleKmLcvk+ghNOmn07qSmpnxjPT9eYtWQlw/mA325i1YJ9VJJXzQIwg92Xsi4F+BozeEkHpcuJLcDOkmix/KHxY+RvL9Exo3rAktk7kMcglH60okLJqwv5Oq8eg/gsNyt7rdAfuiEcl5/IOVe2qeE77c+S/I6E+qrdRfnYUt2u1KMmGpuPr1Tb1PGPF88TfHUAPE6m1muBkcM5tlz6fxZKCIT9GpeNLdoeQ2lncOP8c8BQWzvjwBDYu4xK21nLJwtBOaoIDnC3mn7zFmDl1JJ/TNLjWJ01nHqDmSG+CZb/I+3wxT+bMvz/3jAmtCaGo//vtKOHev65ubyJzBdyWfcBSYX0r7RBd7FpgmbPAtTJdPGApoWDrFitPKhR6MPnHNvVRCGF5tYYKkFa3lYWi6PvtsKFcKCEkrZuJXfo/D89h550CrISSEwHFzjKoTu10jLCmhXCsblhJC4hpnC5BXtPZN0tIn/gdEKyGMWH1oEla0ktcE8a0ncaWG0I5YdQcDTyftXEUss2QNXXikhpCQ9l7dqp4HDtoHUUssrTvuK6siLEQukrXWy92JC7pc1VIs7FVFGJp+spHpPCloGr1Gtgjb/BdWRhiaQuQjGA7uovmKlplm3bIywk7cIxUsM+5xBOke3aeMcBPQYBXH8lGv1BGW+B5twhe68EgdYaTFSBBzkDsghYSF0GQ3KoGUDw9SSTiNfLBCHCBzkDsglYSF+5rFVo2WBS7TPoxFKWHh4coymTRPv+eMWkI04GdT+gsqJ1SvLeFGW8K8aku40ZYwr9oSbrQlzKu2hBuJIWy8HDca6U/DIAmEJ4dB/Vx+8vL4XsN6e/JhRfmCP78JnuIRvfmNslxJkkCoVQPSPrgfPGram12selXTDl+c947R0VozeIpnraodUpYrSRII39R3/VoSHmq+NzWn5o7Rm2HC9/XdajTht8OTkxPKUksjrGteOYTfMODy/fqam0wYX4eHuN4pSy2LsL7b9Gq/4KLsVt/eHDeefjaftXr11DmYTNi8vr4ONc61TqroO5Sllkb4NvTuB4Ty5nT1189nbdUOSYTxyinhKepktKf1n4199/8/iPC5TiwWLaHXiOaU8C0L4QfUeJ12+M15sX/9jE756N7XN81TfKpmc/l3ktTWYbj3iOpLNbcvRUZFO/mAOl+kpX25dnpi/ME+VXGUEV5XN5bRowR7iGq+/owOcaDqGnaOrl2zioizJWxs5L772ymY9uvkZt/rlyYTIjrkC2mONcU/3OPuL+fl2+pT8GtEKbD4y1vzVFs5bNrbw5sVJQUh+vz45biJv+6ea9nTUDrw0ry2+krrxvdeW7lzGHNJRUGouT44RtQe8as89KU+B3Tdvaw9b6dNxfk0vna4hGmg2/XNv/hVLggJdynSy4dT/EbV7Qwd5zmZ8M37zZvu6zwQ1n/93l/Lb7aOfzYPd91eZ+WuxhOuBxnIK8oRYdha+HTjdBsY7E8ldBCd4v6xhIVfSyfuzyV8/wcS3nid0sbqoJwR0iWdyYS/Ne1606tea3nsaWoW1b5VIb/U8UyfNOxeNl1n+cXxnrXfhSXhYyFwdDzhI/4O3dCpYA8s+kdM3NegMaCoRmIkSqu6cahf/16fnDputOvUOOEb38FaI4kQB0Tq75tNCkhnx0n6KUd4dxOKJY7EaOL+7nLQ86ZadVw37bmxJvQfnUi4v4zaJY6epnPmHSenQ4p9scjx0pcTTdt8gNxSd2jAQ7iMvCYRthYG03ZGS/UNaCziJ7RqIbnj3uNHPHLCMXA0flp1rE/hoxHhL/QfdrIb1eULLJwRcHuwxr/OgfGEeMdJrq1Yna0AY/fF2g9p3WCebprXJ9fNm+P1wY3w0fg49J9zzJPn2/j10/pE35qPcQNEvBE795aveIPTXGyNHa1OF6TbEhn/QHuZb40dKXfHyZSpwFsD1qh3N1Gsvk6542S8cEcVsdlPtqLfcTJRvaFhUC4HVSe84V1N3KbgExOo3wE4Tkw7TlKeEcDE5aDqNCky7DhJq86VAUyVW2NHC+84yfxIeho9DFOYVnFqLfCOk5JOjjebawvd4JRZzo6TC3ldQmtWg1BcB8au8pB1x0lm4Q1OrawcuXGXfcdJDp0VkSOX3pFgl7vjpIr+vDJAtki95eibHDtO8mqEujND/t3i1bTIteNkigvODXfrWzUanRvqe7iJDvWFGstRuUfjm5n68U3pAI3N2IMj7DqDIH4jTHnqdJkDXOzqIQuRmXlyQwBSf157hm5QFTdKtHCcS5ojV7lFffZ51gGGFvqVIekBbemFXH3aBzHJVW9oEB/QllJ4T2LFRjdaZybQBTty9kEN6jS5E0UqDQSHAPqWkCiaSI32dGCJshxTNICBKl00OuEQwFBECABH0dI9IEOabiEk7rHKpBIexGfgotHJbtcgSOcgly22TdKVa3yVKgTQu1TgB6YVrgTOXI7dNiDhoWC5UwXPAuAJNvQhZ6JTvexzDm/koZiLaCytpnNGj3K0Z6RLdKrXxGAI3FYGAhKdylUa6JC4w3pY6NfIV2aLVp09qq5/eqk4iiZSD8kRltYMVXU+XTQ63QKox7hglXvRiU71woEWMyoEgPMsuXbR6NSbG+R00biLxkj5nq1Dq4lFCAHYbTRGSv9sqJyohOxdIASAk60SE53qNbrTgeeh0A9zw5Cc6FQv5Mit/M4OwlWQ6FQvdGOCRUt81CpHspF1h4Oi8MhjntS5Ql3Oq3XR6FQeZjmVY6uttspG/wPDKXaozBP3ygAAAABJRU5ErkJggg==;" vertex="1" parent="eqY7StnmCgiGqUW9I_UC-6">
          <mxGeometry x="55" y="41" width="90" height="90" as="geometry" />
        </mxCell>
        <mxCell id="CrnUySWLE13TP5zJjdzL-1" value="" style="shape=image;verticalLabelPosition=bottom;labelBackgroundColor=default;verticalAlign=top;aspect=fixed;imageAspect=0;image=data:image/png,iVBORw0KGgoAAAANSUhEUgAAAS4AAACnCAMAAACYVkHVAAAAq1BMVEX///8bFxsAAABOm80UDxQYFBiQj5ClpKXV1dX5+flHmMzKysoQChBDQUMaFRrHxsc9lMpLSUsJAAnl5OXQz9CzsrPs7OyNjI2ko6SrqquFhIXy8vKXlpe4t7gFAAWpy+TN4O9jYWMwLTCMuty51Ol+fX4oJSg5NzlXVVecw+DF2+xvq9Tk7vbq8viGt9pAPkBraWsiHiLX5vJ1dHVcotByrNVRT1EtjsdcW1wiss6oAAALcElEQVR4nO2ba3+iPBOHYQQrlCqi4gmt2nqora32/P0/2ZPJiYAKdre/e/vYud5sSQgk/8xMJsG1LIIgCIIgCIIgCIIgCIIgCIIgCIIgCIIgCIIgCIIgCIIgCIIgCIIgCIIgCIL4mbxO/nUPfi7e3UOu5C4Mb/5JV/4fmHyEr9cbs8R7DP1KXkNCgNr44eOzWbYO/fD2X3XoZ7O5veeCva6NQu/VJ4f0NhvvUPnmuhJWKmEmwt+E4f1/06sfy91HGIaV+5vr9SZftX5Fwe6NiHUb+q8Hxf013PkVhu/7TLW36+ds5YQJ5od3RgHz0V+tF8sQQiaWFC0MH9eZ6glzSf81NbCHX67Xw2Syvr2+eaugaigZS7AyNnbNBAqv0/uZP/7nnfyBeM/Xb0wyrlhmRdzchyyCaZNiev32eK95vqtwxULfTLGumUP62iGfQ//xH3Tth/LM0gUUrGJY2DPz03Cirtah4ZyEdVvhghkR3rtnemmDY8vD88GGvxXMILIpxGNoBPx73//Ny+MB1mhhfiW1ojtDL8/33/5Nt34umEFUDANjAV/743MYrg+3+r1gBmGmEKiXEunOD8kd81yjQ/ob4/JDhf8KZRP7PFTQIXUAu2EJmDSqybmujom9WIxbf9r6DR1yoq98vQV6O9PNUBVcF/5YLrSoyoeO68w55RHhJkxVPCeqYNt/IRcPYB8TebEJta3dnKd5/a1c1i3qpQLVWoevTfhxjsnEX8vF9QrVksjCl1wT787yS8ffy8X1Ukui51fOdE0UfINcuAPSkYq541kGLcl3yGU9+npJZBvsc/7g+C1yWa9p+vXATO1vH/dz+R65Nkb4evT98z0f/B65eAYhl8TNF8zL++Od+LGGw2Fxu0x1rT+Yfm6TUUkbg2+SC8NXmqGeFL0a8yUwdp9JO1vebWJ5cDW4NEo7PU6N37G12Q2zeS3TrtWfPwGn2TWe2OhzeEkfb4hlhZc4AOMgiFjZyuxCK45bsXFteawkFpKmcsWd+ao57Tb2B1brvXyupt1R4ejxm4f4a3PK4ngBEDmubdtuwLrb0eUJu+LldTYYt6/Lm0KJLuvNDCK8wRnDVtuYlyzUA22XtZxpqQei4YDJsACnbiu5RuzxtiKAZioQ3j4z+9rAkh7/U8kVT9nrAifQFZoRdiQIsKZaMH50Rxmz3vyy3Mt7MvrKOqBmoh1lyl1YqlFMAyyIXqw+OGm7ndQrhkw7piXqw+kCbzi3WqKhlGsrGjhRFLhCMG0nrIFzZfb2EjW6MOXqQJT2cWb4stfEtzgBfyjsMkaaBb9viN5PSj+ezaLM4NSM93KDxlFIj3vhLYJpA8zqSA1rl29oK70SIdfWsh3jXVfANYWr+XzqwpgPW81ZqVxxB7Atgq8NHK1XHLBuAiyn0wUE+ILjUREzCHkYzYQrVGurxuwIf1yI4otUCj16dVwyFwIvmDtlRJHuOhjzm+W0iqpLQ65g2gdjat7xAp6kQK0Bjq0O7RPlYlMGs4uWN2z1AnxvoFzXcxz2mAHXqDVltwZPx0V41OZ15xce1rdAmc7yaoZzNOfFNS0i837QFzNTLiGhk6oZiEeyEbBo4bxPVzMIMg17/EHu09JN5UIJ61IAzrDJS4YnyVWPbEhUHZ95dTll4oFeNfAt0LeOsdHmVfIpW4QTO1jx7rW70g0WMiiNn5gDen2QdiT6Mh8rhRxYvNvaa7VJwFTmA/GnsiPux9KqXLkKOEyuGGxzWGKkrCz6PEkudpEuTVIvT99nLJWfAXvhcRketRMWe+OTGUUslX2NlM29i1JlbHXAq4GSK1iid7bHyljk8pMYUbUpn9815EKYyTab7K3byFhddKcCJXCpXNIbJBg2xZQuHeb0Rk0rJ1+OB/3x7KZwbZS+BNl1YymNS4fHqrISnEsllyPjXFuJu9p/vhTeaeJFR8sFWxEGh8CX2ByxLi11RsjkyPg27vi1vRSWDWmckTYLWxxFxrX+KMpUhWPkRqoC2lhlAJZnKtJV2qnZuhLqunb22cNa+zKR/sfNUsulEyS2otQPLFkDHC3+USZXlFMAs0CcelbnZPI1qzu23WxJBpZ7iYNCrzDvWslgHIDhQmpYkObqn/I+sLSpCc9EEkgrJe2qTGZto0o9N3UT9tiMz0i462BAK10Zc36MqxDOIosxucy0D5n+7ZHmEkXocOICvKt3K28zHq8VaWm50nGM8nIlLDSlGSyvQqfZnwa2TJixWsOCELfAE9LUDNgTDF78n1o7pZaU7DBvfLUTKsRJhxVAJNZaaUruLtsPPtJ2KldTVap8VQaSRj6vt2UU7ORlxdAF2e2mgK0APNKUp6nZdhhGWQjh0QSy2EdeJZmE6bF9ATVzaC40ccRyOTM7emnEqxK59vcDOblcLVfrwIg5zKl4rP+qdbVEPNNpY64TBXJZ6caxRC9zFxShRV3ty9U+WS5lh3JvckCuuk6A4u+WKxZytQ9YF1J03PPmn/bbVG9qCgZbbV3mSqIVuSyRy1O2Bc1+y+MD3rMuLddRZ2S7eL4s/4l1jYV1wUVtjyIZbsu2i+lLXozIzHqwFfLVjVCvw06rRC69Jsh1o1AuK6of3pvgEtC3vh67LkWobx1YNMvATPXkD2ejK20VSZqUpnOn9olGInFYrpmjniIHXigXsyK1czCpKauDdNMvKLGuntBpCEYPToUFry98CGpIvaJtOvx05yvPJfhUF8ml8lk17V6xXP3Dyzszb2HaeKiRyZY6Obly+xpc0/F5rN2hPUYh977/lf941tHplBpjOrFakJ5VLFdsymOlu80jcuGb9s2LGxffZeKWNiMnpoSGXOm+Qz+OH4zgkVzBAddB7k6I9cO0L3Lxw95vlespg1ZHfrwLJ8klw+p7UCiXNT/gNh6ashgsH7aZx6ILGIfPbjZRT5SCIy346ZwS6xuwVUfpUiNMD3XeIno2bEr5xi+qn2XOGIjKl0OJhCkXX0jN4y5LHkiILQw6q7NMq+ZgZ+SSPZKI7JQbAH9s4Uq4ByaqZV/Dunj6t6r2O8mTkVkZw1wMkhd1yueKKS8M9eowI9gl/cTW6eIxuUSaBsaga7tAnyfK4zC9dvagnloX7vQd2/icMdw5PPQifUhPf0/k4YS8no8OP5WoTEIeK7gqsXDHaVYmA2uhXPrU2gVzL3RULmEwY+gKU2h8YiNXJwjcmaUkwy3Ud0tXOS8LY847pFI3cAj6fAMdwjW32XHRxyDEK88kPD39elziZDNWFmVWyVkuzuqjzBbIUVGwdUwucQaK4j69L0G8NtIRXIQFCOZJdcXmDdos9ZAisNwGeixajWHeaYyqCz45+mDWc7jQsL1o1C5HF/NdcU6PGL8XP0IjJ5ej42o8y1VFOu8rlqsGxhePaDYQevE4clgu9jy56XLMXFkiDtfcCIV0WZDDzbcQk/3FJnAF/GhWWLJj5KZDMYBIbH+iI0cfJuZ/DzpMBwwrqgcwM6Jj1XAm1t1PnUB3oY4Ehly8wFXH5Opw2oEr7xJchM/6Ebms2jLthcu1M5KLuQoTdUAxBuDKA+dV5KICL3pD4sIuE9y7ZjRwxlBwmCrlKs1Thxfv6Q50lU36hvg5WmJ+1e/KMr07aai7xMIyfJGXiw56tYPwqe2o+/a6wUKWanPBN/iGmTSWsmqAj69CXUbzlb0b411teRAJu/x2Kq7u9ABmg7ZVQhh+nHIm0Wp0LnoXo0PLbtzoJ93e6Ms/3LjsJ8nXWnmX+KZGLMOVG5kdHCVJpyAriFl9tXPwdXGj0++MGrUz/p8rIrkalN9IIB5fLL7jt0i/A74kZA9uiAJEtC9b+AmJ2Pwty28kOANwCn/BRmTJZZxEMSQWQRAEQRAEQRAEQRAEQRAEQRAEQRAEQRAEQRAEQRAEQRAEQRAEQRAEQRAEcZj/Adozubj6/683AAAAAElFTkSuQmCC;" vertex="1" parent="eqY7StnmCgiGqUW9I_UC-6">
          <mxGeometry x="25" y="270.00000000000006" width="150" height="82.95" as="geometry" />
        </mxCell>
        <mxCell id="eqY7StnmCgiGqUW9I_UC-8" value="ServiceNow (target)" style="swimlane;" vertex="1" parent="eqY7StnmCgiGqUW9I_UC-1">
          <mxGeometry x="810" y="190" width="190" height="401" as="geometry">
            <mxRectangle x="10" y="190" width="110" height="30" as="alternateBounds" />
          </mxGeometry>
        </mxCell>
        <mxCell id="eqY7StnmCgiGqUW9I_UC-9" value="Deployment / Feedback" style="html=1;outlineConnect=0;whiteSpace=wrap;fillColor=#d5e8d4;shape=mxgraph.archimate3.application;appType=proc;archiType=rounded;strokeColor=#82b366;" vertex="1" parent="eqY7StnmCgiGqUW9I_UC-8">
          <mxGeometry x="15" y="166" width="160" height="58" as="geometry" />
        </mxCell>
        <mxCell id="eqY7StnmCgiGqUW9I_UC-10" value="" style="edgeStyle=none;rounded=0;orthogonalLoop=1;jettySize=auto;html=1;fontSize=6;" edge="1" parent="eqY7StnmCgiGqUW9I_UC-1" source="eqY7StnmCgiGqUW9I_UC-3" target="eqY7StnmCgiGqUW9I_UC-5">
          <mxGeometry relative="1" as="geometry">
            <mxPoint x="332" y="104" as="sourcePoint" />
            <mxPoint x="332" y="201" as="targetPoint" />
          </mxGeometry>
        </mxCell>
        <mxCell id="eqY7StnmCgiGqUW9I_UC-11" value="" style="edgeStyle=none;rounded=0;orthogonalLoop=1;jettySize=auto;html=1;fontSize=6;" edge="1" parent="eqY7StnmCgiGqUW9I_UC-1" source="eqY7StnmCgiGqUW9I_UC-5" target="eqY7StnmCgiGqUW9I_UC-7">
          <mxGeometry relative="1" as="geometry">
            <mxPoint x="313" y="395" as="sourcePoint" />
            <mxPoint x="385" y="395" as="targetPoint" />
          </mxGeometry>
        </mxCell>
        <mxCell id="eqY7StnmCgiGqUW9I_UC-12" value="" style="edgeStyle=none;rounded=0;orthogonalLoop=1;jettySize=auto;html=1;fontSize=6;" edge="1" parent="eqY7StnmCgiGqUW9I_UC-1" source="eqY7StnmCgiGqUW9I_UC-7" target="eqY7StnmCgiGqUW9I_UC-9">
          <mxGeometry relative="1" as="geometry">
            <mxPoint x="323" y="405" as="sourcePoint" />
            <mxPoint x="395" y="405" as="targetPoint" />
          </mxGeometry>
        </mxCell>
        <mxCell id="CrnUySWLE13TP5zJjdzL-2" value="" style="shape=image;verticalLabelPosition=bottom;labelBackgroundColor=default;verticalAlign=top;aspect=fixed;imageAspect=0;image=data:image/png,iVBORw0KGgoAAAANSUhEUgAAAOEAAADhCAMAAAAJbSJIAAAAvVBMVEX///8AAABh103CwsL4+PhISEh8fHxvb2/8/Pz//f/p6ena2tr29vaPj49jY2Px8fFdXV0+Pj7f39/Ozs62traHh4ctLS2pqam7u7syMjKNjY3S0tKamppqamrm5uZhYWElJSUXFxdRUVF2dnZVVVWsrKw3NzdT0zuhoaEMDAxa1kW86baC3Xpl1U72/PWz6ax33G5y1WCL3X/Q78qa448bGxvj9eFM0jJt2Fyi5Znb8tTG68GD3XKJ23yi5ZhyAWYMAAAGPElEQVR4nO2YiXLiOBCGZU6Zy8HgcB8JIU5gSCbHJMy17/9YK3W3fACzgaqlUjX1f5UKRrZa+rulbhmlAAAAAAAAAAAAAAAAAAAAAAAAAAAAAAAAAAAAAAAAAAAAAAAAAAAAAAAAAAAAAAAAAAAAAACA09Cq1O3VzMffS+gZlp89i3PStgq94LOncT4CEuj1P3se50Ozws5nz+OMRFbg5WfP4oxo1bzyJo3PnsaZ+b9KxblKji5lzNv/Wu+M9l8j798r7XbnLzr/fXcQ3zT4D9qXux/N+YP7GabRwGyjdjRyDcXWveddTSRzhK1qddJV4fB6MKjVzJdqNbEe8tfRxDxy59qGtnhcLtLEE4xty21TyklEfcLK3PPuW8XsTB7WXzbxavNr/WC/9a1Vl6AjmgTTNDda02MVajX2HO26bam13fcbimzdXg4r1DJVZa4LYp5am6poPxZkrTRJzJWnJkrmwWXSsqR+1v5VlDzlyqjvP8arVcGwilePvlY1e/uWb9Y4l9GwwYl5beilhErOJ8JVYGzWMw1TFtOWvlwIG9xYsQKnXpaibcoOENleZS9PTQL4Nd4UhE38ZLzbsnfJ6xIGvr5jZx1LVtDYbsj77OBtF8NEoZqnQ/G4RplT6Gp/gnmum2voHlB4yXvyqZBltdVslpyiLr2d69JpIZx3650mLwJad/NiqdS/sle9jMJB2waZZjzhzi4EicJrfvImqjqXNehiEZrdTleNVOFFJCva7GBfPa8KskLl4tlXNAWV8XJyXT1aoJolIQlCF4RLclAgNsX6MCBPK30vskTsTKUKOzzzmsTXBqwpSl3Ex05hxdprkEvmxvBLXDBrNC68rtevBdIYv3APm4vcrrXXFIMTzk/k7KokDq16me5jvmaFqUlqHtqHKSWNMgrJXdfy3JLSoF1SA2n55lHmKKeiJcTGJU9WVfxqk6j/8BzbIH7l/DIzfnVbZyJHxFPOT5LoKqKANvcFMZOZ1F2khBJ10BKxskoV8p3Qecv+cQ5szazBllVo3kDK/MHM2H1v7zZsX0xJNN189Yv0vqkbfrToORqqL+v6eAbS99vYrEDOI1kWrPAieV7zMumJN/oZhZRIb3PWO7v2zI4oS9iIIRt5ZEk+N/pvFMQ1y+nxSDTRrhN9PDpIU9tIckeW1r5CEjJ3HxmFde6Qpb9nsJNX2OR52zxjlqXsFl/ZxLp65U3f5lmR9evG/hgf0080ThUt+GzB2IuhkuB1IgnljsKbnO3irr3dGIrCL6wo4dUqfpYUE7F5qhK0gHIHoaMImzyJGY+ev7mvcETevE8fFYWcfZOslXQe5w3+WaHvTmL+syhMy3U9PXx9O1mghbuzz/KpeE+hTmt2M6eQveyyQGDjS8lnkLN3UKGNWWGbnqa3pnSsviv3Awllz9rOqMfSCdnure0bUHgGMlCpYgvgfgzT3RXkFbKbeA012lSWWyKaTPbpQHtI4VqSp/jwh8008U+VHonGKj0qTE8SaJwchVomaZIx+WxAGb94RVv6gEKqbB4ftrMKuVx4s/6oQzOfh7yivaYVGESs/pDCB6oWW7fCt3Q2fbCnSFFVS9Xagtu4uztuM2q1sH3u23zuKycnmPJiQoWjdVhhj58KdxTupc4bOVIYQ4sbF+BDCtUvOqk9vZk86v/Y2oiuflPgKzIz7Y4HVKCao27nOIn5KdnzyTLX0i4dVKjd/PMKs69i1Nu9LKX0/qCQSv5mFW+ef28pnoV3XrPscn41pHDY7FYr9halo8q+DhaZ0bt7ou1x7pBCnliSkZIY5h004Rf7aqbJ+n+/4nfNOeZ7bI/d23/Wj9+3tAsfpfxTpeflS+cH+4Kh7zr9oHeMQkNYkcFbbs0F7px7QW/9XBt2etnCcJukPnIKbUqtAmfvOnFAR145vCb9WkU5zWWLiBX62v/9Hm9/UJv/sonfX511uyPkXYZKP01zNO42j3zJt4+F/d6yk/uprN41LfIKphslw24v06QThbqUe4R65w5WQWfZ64cyHD2c60oviP7LTy0F0dc/X9LKYcbXOn1abvztP+0BAAAAAAAAAAAAAAAAAAAAAAAAAAAAAAAAAAAAAAAAAAAAAAAAAAAAAAAAAAAAAAAAAAAAANjhX4JMXD4t54gnAAAAAElFTkSuQmCC;" vertex="1" parent="eqY7StnmCgiGqUW9I_UC-1">
          <mxGeometry x="184.77" y="74.00000000000006" width="100.47" height="100.47" as="geometry" />
        </mxCell>
        <mxCell id="CrnUySWLE13TP5zJjdzL-4" value="" style="shape=image;verticalLabelPosition=bottom;labelBackgroundColor=default;verticalAlign=top;aspect=fixed;imageAspect=0;image=data:image/png,iVBORw0KGgoAAAANSUhEUgAAAOEAAADhCAMAAAAJbSJIAAAAvVBMVEX///8AAABh103CwsL4+PhISEh8fHxvb2/8/Pz//f/p6ena2tr29vaPj49jY2Px8fFdXV0+Pj7f39/Ozs62traHh4ctLS2pqam7u7syMjKNjY3S0tKamppqamrm5uZhYWElJSUXFxdRUVF2dnZVVVWsrKw3NzdT0zuhoaEMDAxa1kW86baC3Xpl1U72/PWz6ax33G5y1WCL3X/Q78qa448bGxvj9eFM0jJt2Fyi5Znb8tTG68GD3XKJ23yi5ZhyAWYMAAAGPElEQVR4nO2YiXLiOBCGZU6Zy8HgcB8JIU5gSCbHJMy17/9YK3W3fACzgaqlUjX1f5UKRrZa+rulbhmlAAAAAAAAAAAAAAAAAAAAAAAAAAAAAAAAAAAAAAAAAAAAAAAAAAAAAAAAAAAAAAAAAAAAAACA09Cq1O3VzMffS+gZlp89i3PStgq94LOncT4CEuj1P3se50Ozws5nz+OMRFbg5WfP4oxo1bzyJo3PnsaZ+b9KxblKji5lzNv/Wu+M9l8j798r7XbnLzr/fXcQ3zT4D9qXux/N+YP7GabRwGyjdjRyDcXWveddTSRzhK1qddJV4fB6MKjVzJdqNbEe8tfRxDxy59qGtnhcLtLEE4xty21TyklEfcLK3PPuW8XsTB7WXzbxavNr/WC/9a1Vl6AjmgTTNDda02MVajX2HO26bam13fcbimzdXg4r1DJVZa4LYp5am6poPxZkrTRJzJWnJkrmwWXSsqR+1v5VlDzlyqjvP8arVcGwilePvlY1e/uWb9Y4l9GwwYl5beilhErOJ8JVYGzWMw1TFtOWvlwIG9xYsQKnXpaibcoOENleZS9PTQL4Nd4UhE38ZLzbsnfJ6xIGvr5jZx1LVtDYbsj77OBtF8NEoZqnQ/G4RplT6Gp/gnmum2voHlB4yXvyqZBltdVslpyiLr2d69JpIZx3650mLwJad/NiqdS/sle9jMJB2waZZjzhzi4EicJrfvImqjqXNehiEZrdTleNVOFFJCva7GBfPa8KskLl4tlXNAWV8XJyXT1aoJolIQlCF4RLclAgNsX6MCBPK30vskTsTKUKOzzzmsTXBqwpSl3Ex05hxdprkEvmxvBLXDBrNC68rtevBdIYv3APm4vcrrXXFIMTzk/k7KokDq16me5jvmaFqUlqHtqHKSWNMgrJXdfy3JLSoF1SA2n55lHmKKeiJcTGJU9WVfxqk6j/8BzbIH7l/DIzfnVbZyJHxFPOT5LoKqKANvcFMZOZ1F2khBJ10BKxskoV8p3Qecv+cQ5szazBllVo3kDK/MHM2H1v7zZsX0xJNN189Yv0vqkbfrToORqqL+v6eAbS99vYrEDOI1kWrPAieV7zMumJN/oZhZRIb3PWO7v2zI4oS9iIIRt5ZEk+N/pvFMQ1y+nxSDTRrhN9PDpIU9tIckeW1r5CEjJ3HxmFde6Qpb9nsJNX2OR52zxjlqXsFl/ZxLp65U3f5lmR9evG/hgf0080ThUt+GzB2IuhkuB1IgnljsKbnO3irr3dGIrCL6wo4dUqfpYUE7F5qhK0gHIHoaMImzyJGY+ev7mvcETevE8fFYWcfZOslXQe5w3+WaHvTmL+syhMy3U9PXx9O1mghbuzz/KpeE+hTmt2M6eQveyyQGDjS8lnkLN3UKGNWWGbnqa3pnSsviv3Awllz9rOqMfSCdnure0bUHgGMlCpYgvgfgzT3RXkFbKbeA012lSWWyKaTPbpQHtI4VqSp/jwh8008U+VHonGKj0qTE8SaJwchVomaZIx+WxAGb94RVv6gEKqbB4ftrMKuVx4s/6oQzOfh7yivaYVGESs/pDCB6oWW7fCt3Q2fbCnSFFVS9Xagtu4uztuM2q1sH3u23zuKycnmPJiQoWjdVhhj58KdxTupc4bOVIYQ4sbF+BDCtUvOqk9vZk86v/Y2oiuflPgKzIz7Y4HVKCao27nOIn5KdnzyTLX0i4dVKjd/PMKs69i1Nu9LKX0/qCQSv5mFW+ef28pnoV3XrPscn41pHDY7FYr9halo8q+DhaZ0bt7ou1x7pBCnliSkZIY5h004Rf7aqbJ+n+/4nfNOeZ7bI/d23/Wj9+3tAsfpfxTpeflS+cH+4Kh7zr9oHeMQkNYkcFbbs0F7px7QW/9XBt2etnCcJukPnIKbUqtAmfvOnFAR145vCb9WkU5zWWLiBX62v/9Hm9/UJv/sonfX511uyPkXYZKP01zNO42j3zJt4+F/d6yk/uprN41LfIKphslw24v06QThbqUe4R65w5WQWfZ64cyHD2c60oviP7LTy0F0dc/X9LKYcbXOn1abvztP+0BAAAAAAAAAAAAAAAAAAAAAAAAAAAAAAAAAAAAAAAAAAAAAAAAAAAAAAAAAAAAAAAAAAAAANjhX4JMXD4t54gnAAAAAElFTkSuQmCC;" vertex="1" parent="eqY7StnmCgiGqUW9I_UC-1">
          <mxGeometry x="854.77" y="74.00000000000006" width="100.47" height="100.47" as="geometry" />
        </mxCell>
        <mxCell id="CrnUySWLE13TP5zJjdzL-5" value="" style="shape=image;verticalLabelPosition=bottom;labelBackgroundColor=default;verticalAlign=top;aspect=fixed;imageAspect=0;image=data:image/png,iVBORw0KGgoAAAANSUhEUgAAASwAAACoCAMAAABt9SM9AAAAdVBMVEX///8AAAAaGhrt7e16enq4uLjq6uqNjY2pqamAgICRkZHb29vz8/MtLS0jIyOKioqenp4NDQ3h4eFiYmLOzs7Jycn4+Phqamq8vLwzMzOurq5ycnKEhIRCQkI7Ozubm5tXV1dNTU1dXV0TExMfHx8/Pz9JSUnYXnWpAAAJyklEQVR4nO1d7WKqMAwdUxHFbc4rirhN3Nf7P+IdIKSlaaFQDK2en4i1PbZpkibpw8Mdd9wEdn64jf6wDf0ddV9GDD8+7Q8eh8P+FPvU/Rod/GTvSbFP7oRV2Cyf5UwVeF5uqHs5CgRPTUwVeAqoe0oNf9GOqQKLW16OvkJQ4djfKl2roy5VGY4r6n5T4NSFqgwn6p5fHeFjV6487zGk7v118dadqgxv1P2/IvxGvaoJzzcj6OO+VGWIqUdxHbyY4MrzXqjHcQ18muHK8z6pRzI83k1x5Xnv1GMZGodmDtrjQD2aYWGUK8fZ+jDLled9UI9oOKSmufK8lHpMQ0HLHdMWC+pRDYNkCK48L6Ee1xDYDMOV57nocK6PcRYHU30b8RjE8bn2jHpk5lF3ihaOA3+t46qZF5Moqj3eU45rCNQH6G2rT37aMfUKwqn+UUQypOEgjJ35bNvmfIeV4/8UjTkAQWtIuY+rjfKwf1kncbTdRvEsWB4rQ5J3MazrrTmlP4g74bz2xtE7vMTIvjaJTmfvUPtgKzTn0o54Vq6qHDpRIL7Q3NlgZ4khzoR+js6d2N62+VuWALGf+21gYnvOWNTIxDJOljNTC3M29FqGK6TB1ExfqSGK4z+s+7SImpluHI6hB6rTPi2iZ2luHLxiI/O++rSIn2eb6i8lBKuwQB81Em/RBQtREoPVR8TgrnwXnA84V712ekQpdWMd4qtw2a/R0NF1iEY2fPdtdYq1an/0A+qr6j8HsFafDHSXFKh4MWDIoUGWtuevoCLLQGwV+ifYLrTQGWCiYUwjsT00FxvT0UTDmMlju6aFyfeZiYYxz4PtEh5bhWb8A9iBo5GGyTDByDLTNLbAJ2aaJgKmahtaLJi2a3c2AaY5GDqJEQ4PPdt1hxkyIkNRxgHStJGtgwxYTNaAZNkdq4WtlXS4pnt59smBKfCGwtexpu1W4bG/f8Dd0O6ZhQkWQ3oWlgdrd845GnRrxpNyRlq2W8CjJ3xm4oOwlu3OqxvKneWkQws9WagHsnUCFm1iubmDOVK8HxMto15Fy8sYYEMyIuHRvEUD7VICzZkzYMKhU9b2iDa0Kkjav11UgTPiryYEpsKb8JV+Y83arcBLNq3+cet4UID1oZLoqHr7f/EMKSMdpgSemZP2axSVWGZUElIs8anVy4pDo1R7h+aMALjQ6mcgStIU7dbfc0jI6iG2zpIWDXaaCmgoVYau+oOMKxdSw2TrsKOPYCJNTrReccggJavLXJCn8L+a7zkBVMX9NK3EUFFyxO7DihKMzfu9DAJehn1p6BDRr4J2290zJcCYLvSF2lLax21cNtuGMoG2G9ElIC/pEm22qzujfuZYym8JPzo1V7FxJvEXirGll0mEDh4NzY6/GnnK4E6ZNjbl7SLSEaegpBhWuzq5zkwsPvCsOAhFPJ0yJbUNV65IrAwcNYXyKDgOpBmIbaojObIVFuB0rUJunWvjlZvBzVzZ7iKtgXUUXPZE3jOsUMAbC6E/X2cMVwN32losxB0n5BVSp3EdOiTdC7BOwHLfmzPPFIYPnjAHsN/pJ4A160p/w+pUeJ33iUqJR+PDAbafFmJgd8SUfd7oBZQkrpZwaicswTq29KSMkisn3FgiGNVKr3Stiiu7g/0UYBwHWglcCq5c8CVLwGhMqcbX5FzZnjSnBFutr/0CknLljq8BBVfb8DjbFCqDvw1Ue6KMq3/X6TMdZCdjqv1R8hWXXA0SSM7z9ckyEpo6duCXo2iTZXcGWGtsXvXIQjV454xnKYQStsqoDoSs9Fo9HQPEpE2tmWV32ok2dvXrdzTIOjtpOisR8bUG2i9DuxN0uiJoSRZ33OGYu10Da12y3Ij+6IqkDLdqYe58OeuOaY0wN4CUVUbz9bp31MuniyhpiJ3dJLcp1e+444477rAO4ez0tlgs3uanJHKjOPtAmKzrYaLn0+14nLTgI/6pP3xoZh4Fr88FeNtnd3n6/NjugALeH+Phj/RiaOjs7PNwPjVFcMNZBucyhoS5dkkUTByJ9lCGxk5+KW1Qe6XBYGkk67FVh4Cs0WWooDUDLihXU5WbpJb77pOlup/w8gpE7qmFiPNkqS5nTy/vMBkC5ddW/iSHz3qIXScLPwO8oPTUMSdfpToh0vfgPlkCQa+Hj0O5Mkt5zqRT+vXvseNxnCw+8v89KSfObjObwqRhboIsH90iWWwS0lddMai2PkjdqfzCIn0PrpPFRomqCmqWEzCtntwgWUzYo3ocUS7jmXj1GySL2eaazMAw4lbp7ZHFVDnRjcHTIQsGbzNZjJKltvpWF8DZIIxnl3+S29hDkLWbHXPN5XFPHM/FxPAp34OQmUJqhYHo0snYakcWlE2qtltI0Iu4978nXEIZ6ck/DFkdYQ3a2Pzvr8ZzwzOzB8jiTgnBVM/JAhW3kpPwr2Usy1N9fgcgoS3AN6M+V+fIQq8IrZN1XDMAKvqSZapgeBdAJ9RVZfTJkqA3WYRBu9CHyt2+fOHwlgv+EZFFdn8K4/ZbiY8K5FniYyKr18W5PcCoWeUjgaw8D2lMZFG55Y2SxasOxsj6DcLJZMsqEESFvbuR9RD+gWFsE+YPsveMk3UoZSkTYUiUUN2RrBziVx8GIAuMMDgCTgfjQwmGLKmAHwtZYJkR2YsMM774qBdZn1nQRAl43J0spmNDUqIAdKC0o02RZcjcYXwh8INEF7dCB6r0kDDa/gE635EslT+rG1lQVYJILQWpWUvrnvEfjIEsKBdIRBaUAas5mkZI1pmaLOYgjI/FGiFZ5DOLOdzhy/WNkCyQWVQ3c8OQ+S6MkCw44TRJgA4Y7zB3YjFCstAfvCrYsBDW5tIgS//4vhNZ0AbddQQMWWyVhSvNrMqB0EwW9IiuGARfo2F++asnUHGtmSzmdLYdWSCqq0yyF+6LGFlwXEB4xOM1QEYW1Ev8Bq2jHVnM6VBhZYWMu6rmz9pf/opj/TskwK4+bkMWGzD4tD9+HnhPqYosJoDJ+5gu+NBD0VOaHqfcK9dkpw5VmKSCLKFGfDa/2pGl/H8a3cq09WuktyQoyRKcy+3JUoVHN5NFe4PKTsmWjCzG/NAlCys30posQ1fJd4eq81Ky6lNLgyzJFUWtyKI6NgTIQ5aLeGWMrLro0SAL+72Pd5GsN/HCi1HkpAdYhfvHUqUBslh7m79iJiMLNngJWeVWVr+D7nlWBiEmzPuxcF/gWK58Cpd8Dt3vCXq2Kj3qU96TE8Bf/y8zxKNp+R6ftlI55CH+ZM1IykU2X8LjdFp+8fJ+1uQMtLKncVWF2ESz9Wm5XCdR21TDXRgnQbdUztU2WS9PQdz43TAO1n9dopdWd9whw39H7XZx3Tge1AAAAABJRU5ErkJggg==;" vertex="1" parent="eqY7StnmCgiGqUW9I_UC-1">
          <mxGeometry x="393.41" y="89.74" width="123.18" height="68.98" as="geometry" />
        </mxCell>
        <mxCell id="CrnUySWLE13TP5zJjdzL-6" value="" style="shape=image;verticalLabelPosition=bottom;labelBackgroundColor=default;verticalAlign=top;aspect=fixed;imageAspect=0;image=data:image/png,iVBORw0KGgoAAAANSUhEUgAAASIAAACuCAMAAAClZfCTAAAAmVBMVEX///8AeNcAeNQAcdIAddQAc9MAb9UAeNPA1PEAdtMAbNMAd9cAcdX//v////0AcNKlyu3Y6PfO5PZfn9+Btei71/Pu9/3z+v0khNhOmN+PvOng7vnD2vLH3/Srz+7n8/t6sOQ3jt0AftYAadRFlN2bxOtTnN6AtOhvquMnitre6/mTwephnt8+kdwdgteKuulnpuGo0O6vzPDBrXmTAAAM1klEQVR4nO2ciXLiuhKGZS32CIyNWWyDAYMDiUkOy533f7jbLdksCSQkMyw11V+dOkmMF+mn1d2S2sMYQRAEQRAEQRAEQRAEQRAEQRAEQRAEQRAEQRAEQRAEQRAEQRAEQRAEQRAEQRAE8VOSTcxY0Lp3Mx6ZZLkeg0bBvdvxwCQz3x2SQJ8yazb9QXLvVjwqYDxBMms6jvD69s+f3aUapv+iR4OuBWymHMdp+tMfS4Qa/c1WPRSmZzDQjEaz7Md36XpF4T3/XOPHZlw6SNNpKmfys1sEudZcc5H/3ZbdG+s9suHK95tORdMv871j+QYLwT3Oxds/Z0bJqMt96RzQ9Jedn2g0054DdrT8x7KrbLhsKOc9qrn4/q0il+t0rXnY+YesKOl3m/sBdoTfzb/bz6ny1PQ/zdX0xw0KHiQqYtaCQyHaLIXvnFYIDKkw8xHMcapG51F/2DlzTzgx8bQnRgvhcZlUh06cZpMw83v1A362qnyqvtVBYhWw1h00gwYELP49d84YUO2RVG+vznhRrgrHf/p15p5wy34I4yx51dwL+/Y5QdI5Jg9aEf6wHzPzcYxSvcIvETxr0ut1rBNMJi/d7bQdn1T62uDX1ikL/6MHOlbIcdxVxOJoNByk3PdFU8ORcxJBN+aSiyljK8nltjrWkfwAT/RYsnZMyDPNyDxIEdr4RxcuGrBOqlSjNKJs1kpJpVTRu4km70kWKyVMmnjWippK+K6bPrdXRdP31e7EsxIxFrsQ72FsLkLOVWaGU1BL5Jn/63ADEoE7fy8R5JxKy0FewOkKJGL5XGjOpYTwKOY3d04tljnivDTohFCdWbkYoxN4OpbxE4nawtPLBPttUiMzPjqNsMLhnieXsZFIDatLjqxI/7dVWoVhCWrPFOdhut2uBTeWedPBBo/y1GmFMLEGcZz5cBIl9cmN43M+kWgGfd9gKJhL0MpOauO+ZTRegkFo8PWfSFQUIt0syin8BQpJPB70wJrQNG9rSAP/lDyojr9+HvZzG3KQ70gUdFyIZCYhmsBIC8fHwXuC5oCp1nmJ4ATrwljU8Lhq24gHH6jttaT42Atjr2333bhqgrPxQZ23cb4/c/fjYiuaKoxn2K3c4w6kRsFepCBrgJPp4qFPJNKz6qHPmsvnKtyj8kV+q4FmDCPym9ypciE0HYhradkeJft05ZhLJUoKiFQb6zUgtGm+vxnE/iWOIxPdP5GoShVYCwwqbO8aAOJ22I0WoLD1edGsbAfUcdL5ZtSJ95/+gUST0OO6WkXpQyQS+9WCgG0F12YQfiaRXsf2+TCP4bo3aRsmqN3oZr4InjNQIJDyFU+7w1GWVEet5/kjK3qGrhQTywJiGo6UmoUyjsg85BOJVtXzx+DLuBIV3JjX7SLaBl11czAcZyfWqE+24iKJwDq1xlgfYqdChXmQju0nQRBhjwfVqShRlTqyD6mjPdxHibQEtDb/uZNbhTR4uJlx+KNvXHShREOYmVUJIre/KdN1tJsZDqL6K/lSIsZGKNFqsGd+u4HGpibe+/1vPPHCgTYDI5J+nSf6GJ+WeBwetFXGm1SARJ4daCcmIPaKDrg1Of5pH/+IgPUEdlP0v3HRZRJF4KDldjyqGA8kZDaR+agdwtxsuMuP0YrktGpPhE7qvRUFufAqG9y3/Ga+qFdb0eVcJtEU4060/xvimwepNiYZEP+Vdd1mISSAJBwSIBsfhuKjRHB4bfOi1j2Wj64kUYCmodcHR+ICDhQJC2JwRDyN6xMDG/rCsfm1A/KdsCK2wSWnIauTz++4zj/mWlY0Ep6HeWOFcUAwWKBvpeBgTp2xZZQFJgPQBXa7vzazjg/umiUSp/mlzbL6z8ufdPWnXEsisAwt9uuRIBEGbtk107UqgOPiT2OIaTge0ekqVSotTlkRTJJC0Ejp1XY7KJSY/bzD3+dKEmWe5+nj7zqBkcaLMf7/AFwjYQvoP2TiUqu0X5iIBpL+ByIP9pf3QlwYQGnBk/0LVvT25LpPm2O/+tII3UbZCP0dkAugFeFEWigtlbvMcuH6T2arZdAIG6vdxQEbrUNlTC9sLM8tl1+FK0mEy9Gd5DjyxJ0TjHMb/Bfd1byEzMesXZtjeIvo6Aadl+fV6rn8341LVa7li+z87uvoHASto2WNegdktyWyO3540k2X96+WF/07kERfQhJ9yYNJ9Ag70++5ikTB0e8XOtfW/rTHqiK5khX17WJj3y7UXdJjlCWblN3/utN+/FDWdB2J4gITQxEK6S2nl+Z5WckFJodKrH9QpnM9egdLaheuMlww0OIUZgtKCaW0VrL8OteDB48L5WgFsipPh4PETOrPtOiWNhawzZPrq6bbh9a0LvQBl1hRquVg0+v1thxmrWKV1N1qHVTF7LbUjLPKlORq3Zv026XQPHwOqlWzlt08OziZBexWO0Smxa14vNgu7UCrdz2+4DKJ7Go0SyaFxD3VujzI5M3vLRa7vYbTKnPLlsoL3+wlwYc0/ca+vNpLDJLFoPe7f2oP5AQXS9Qy/clh0H3Y9jqeXQBvoadKVplUzDkv8o8n3Ye6BdsG7sKu5y+/+1F89MmHVl4okV2wNxVFHu5Mm739bqGXG1wYGw6HbXvjZDEc/mKFdtYJq0dXW3jhb8ZyOCtm422hV4vq68uGK+8bIeDvEdhCfYkbsr7r+rNy+Luz+8j+3FXPXSbRbvOQsYHEFdkWy5chFlEJBcO6dENZ77SGT+MoxBqSPcosp0WheMp7rpKOFKmxqg0ESaWUW15BhM+BYZ+k+xI1U/bQaDSX3eFknNfDrzamb0s0VFiAxWKtNO+WqdIiYmNRb9hvhC7Yb7+qIal4ls4aJMKtEVekS3DgElcaF6GW6+12dQeJzMaEd1Bj1HS4Y3f5Xb+Yb4eTaKfU9yUaCVy9Z3Mpl1hpslVyjnsaVRXtTMKYnCrO9xX+ASsVGl6ERZIDUDdfSSx7SOC2RpzsO3ncX8JsKzSdpnNcLWuqIRwz+gRflcP2KPsgkf+lRGOF/nrsYhGEqbNw3MwYDzqfjtYiY1vpePFBazYK62MibbcnA1zels8sX2vcobxHvWzVrrZy+PmCWeOnfKdYyePjX0s0UmhFPVEvRa+kmLDM5Wps9rXR63Slx/cStUAiXcRoRXYdO2AvSq/jJJVy/tM3dv4C8P2++M2zNdd7pd4d+HqgtUMPDGUm9ao3BXprU5220uqFGb36ZmNS5we+CAaa9UUhRg0T47iHpudIXd50F+0QTEi6pyr6vsA90eJjibbKgzFVcC7t/r6S7gKFwxq0yNY//BZoU7umgN/CEYYSvdpD/dCTrywofawPnd1PJJasvqi8/sDp17D2EgVmHxarrgutl91nywAMJ1FYazZUAsuoMejb6mqT4Mchx8O1RDsrYqzT9YSW4eJ+CyZZKr+WZUfT8dPoVP67kwg7Uqo6oO2LOPH4VkIGPpe2FqLQvMiqaoYAAxwWxaJEkZ2h9ZROY/NhvgCxdXavtBsCzCcO+yP+Kj85GT8caC8Q8rG2fKjsHn9QVcFBiNOrDJ01Gs4idKSZ3uP9+lJLLD9Hd72wLmCpZZdViWwkdfjrfhJVNVmO86XfBtwtOz2JQonMNDbuz2E8LbFkcRzuyvXizMzFPF1slKnyRA1gmjKwjqettWfcdKTNXA0e8QY6T1iS2+cVXPy65+xtY122l9qXGt+nSgfDzD+98oW+JOU6na9Ws0JJ7c5tUohidcdR1NlwW4a3EbzQVgLIDj3JJZ9Pe90UcumG2dY3qWPR7nRK5clZAnnRSyfLIwh36vVmepzq4dZUP86S8Wbmf/JikXL6p79JGCrx2jHva2gIP/qtOh4XwsMdeSkaE3NhJDzPvN9hyJah1jABk3iRjQFmAhKCICAuB5eVFwKL3UD14V2XAAK2EigRNqGzKRpn3g4R62i3PPbhDrHXcBFVbNvJbtEnKcNQhKGr8D1bvHbZcJ/qVxVw0zp18fOGnlaL1+iu87ZswDXP6MvjZQPv4Ka3rJc92cOkUCBRtSMR9XjjhC25g9jM/k/foZVlOVIvq9Qi5KN2e9JJrAdusTjPcvN6HqtkzPrtdr+T1BYCErmvLB5N+hjAUNQIT4hYtWp7R6Jms3lQwhNN175/5MD/6F83+EY79qnjwzFy1VGVUzB+KYSoX7JqGkd9gy/xgSXCgp9aot1bDtFLqmyww1dkgzN+6K/ywBLhzDrd/brfTu1s1k1fVf88xg18wUNLFLR6J9f6YcQtuzcrgYqUbrw+wAL/aYLDPfaj48ntisReZ7P0bpOxLwiCU3tqxivdfMnvsWogaoJ6g+3D8bN7yFfB7sI+pkYEQRAEQRAEQRAEQRAEQRAEQRAEQRAEQRAEQRAEQRAEQRAEQRAEQRAEQRCf8H8n5O/b//d8FAAAAABJRU5ErkJggg==;" vertex="1" parent="eqY7StnmCgiGqUW9I_UC-1">
          <mxGeometry x="607.5" y="79.53999999999996" width="149" height="89.4" as="geometry" />
        </mxCell>
      </root>
    </mxGraphModel>
  </diagram>
  <diagram name="GitHub" id="6QIpwZjDjoLpeh9Ns2bE">
    <mxGraphModel dx="2115" dy="1167" grid="0" gridSize="10" guides="1" tooltips="1" connect="1" arrows="1" fold="1" page="1" pageScale="1" pageWidth="1169" pageHeight="827" math="0" shadow="0">
      <root>
        <mxCell id="Zt4jJr7SUkMoKh3GxuXT-0" />
        <mxCell id="Zt4jJr7SUkMoKh3GxuXT-1" parent="Zt4jJr7SUkMoKh3GxuXT-0" />
        <mxCell id="Jv6C8LjqqRdF4ndWvxd_-0" value="ServiceNow (source/DEV)" style="swimlane;" vertex="1" collapsed="1" parent="Zt4jJr7SUkMoKh3GxuXT-1">
          <mxGeometry x="43" y="67" width="187" height="68" as="geometry">
            <mxRectangle x="43" y="67" width="718" height="506" as="alternateBounds" />
          </mxGeometry>
        </mxCell>
        <mxCell id="Zt4jJr7SUkMoKh3GxuXT-3" value="Business Rule" style="html=1;outlineConnect=0;whiteSpace=wrap;fillColor=#d5e8d4;shape=mxgraph.archimate3.application;appType=comp;archiType=square;strokeColor=#82b366;verticalAlign=top;align=left;" parent="Jv6C8LjqqRdF4ndWvxd_-0" vertex="1">
          <mxGeometry x="30" y="218.5" width="307" height="110" as="geometry" />
        </mxCell>
        <mxCell id="Zt4jJr7SUkMoKh3GxuXT-4" value="&amp;lt;Commit2GitRepository&amp;gt;" style="html=1;outlineConnect=0;whiteSpace=wrap;fillColor=#d5e8d4;shape=mxgraph.archimate3.application;appType=proc;archiType=rounded;strokeColor=#82b366;" parent="Jv6C8LjqqRdF4ndWvxd_-0" vertex="1">
          <mxGeometry x="53.5" y="242.5" width="260" height="58" as="geometry" />
        </mxCell>
        <mxCell id="Zt4jJr7SUkMoKh3GxuXT-5" value="SubFlow" style="html=1;outlineConnect=0;whiteSpace=wrap;fillColor=#d5e8d4;shape=mxgraph.archimate3.application;appType=comp;archiType=square;strokeColor=#82b366;verticalAlign=top;align=left;" parent="Jv6C8LjqqRdF4ndWvxd_-0" vertex="1">
          <mxGeometry x="30" y="351" width="306" height="102" as="geometry" />
        </mxCell>
        <mxCell id="Zt4jJr7SUkMoKh3GxuXT-6" value="&amp;lt;DevSecOps-Commit-UpdateSet&amp;gt;" style="html=1;outlineConnect=0;whiteSpace=wrap;fillColor=#d5e8d4;shape=mxgraph.archimate3.application;appType=proc;archiType=rounded;strokeColor=#82b366;verticalAlign=middle;" parent="Jv6C8LjqqRdF4ndWvxd_-0" vertex="1">
          <mxGeometry x="53.5" y="373.75" width="260" height="58.5" as="geometry" />
        </mxCell>
        <mxCell id="Zt4jJr7SUkMoKh3GxuXT-7" value="Update Set &lt;br&gt;completed" style="html=1;outlineConnect=0;whiteSpace=wrap;fillColor=#d5e8d4;shape=mxgraph.archimate3.event;strokeColor=#82b366;" parent="Jv6C8LjqqRdF4ndWvxd_-0" vertex="1">
          <mxGeometry x="115" y="121" width="136" height="57" as="geometry" />
        </mxCell>
        <mxCell id="Zt4jJr7SUkMoKh3GxuXT-8" value="" style="edgeStyle=none;rounded=0;orthogonalLoop=1;jettySize=auto;html=1;fontSize=6;" parent="Jv6C8LjqqRdF4ndWvxd_-0" source="Zt4jJr7SUkMoKh3GxuXT-7" target="Zt4jJr7SUkMoKh3GxuXT-4" edge="1">
          <mxGeometry relative="1" as="geometry">
            <mxPoint x="133.5" y="158.5" as="sourcePoint" />
            <mxPoint x="178.5" y="158.5" as="targetPoint" />
          </mxGeometry>
        </mxCell>
        <mxCell id="Zt4jJr7SUkMoKh3GxuXT-9" value="&lt;div style=&quot;box-sizing: border-box ; width: 100% ; background: #e4e4e4 ; padding: 2px&quot;&gt;&amp;lt;&amp;nbsp;sys_update_set&amp;nbsp;&amp;gt;&lt;/div&gt;&lt;table style=&quot;width: 100% ; font-size: 1em&quot; cellpadding=&quot;2&quot; cellspacing=&quot;0&quot;&gt;&lt;tbody&gt;&lt;tr&gt;&lt;td&gt;PK&lt;/td&gt;&lt;td&gt;sys_id&lt;/td&gt;&lt;/tr&gt;&lt;tr&gt;&lt;td&gt;&lt;/td&gt;&lt;td&gt;state&lt;/td&gt;&lt;/tr&gt;&lt;tr&gt;&lt;td&gt;&lt;br&gt;&lt;/td&gt;&lt;td&gt;&lt;br&gt;&lt;/td&gt;&lt;/tr&gt;&lt;tr&gt;&lt;td&gt;&lt;br&gt;&lt;/td&gt;&lt;td&gt;&lt;/td&gt;&lt;/tr&gt;&lt;/tbody&gt;&lt;/table&gt;" style="verticalAlign=top;align=left;overflow=fill;html=1;rounded=0;shadow=0;comic=0;labelBackgroundColor=none;strokeWidth=1;fontFamily=Verdana;fontSize=12" parent="Jv6C8LjqqRdF4ndWvxd_-0" vertex="1">
          <mxGeometry x="336" y="30" width="134" height="91" as="geometry" />
        </mxCell>
        <mxCell id="Zt4jJr7SUkMoKh3GxuXT-12" value="" style="html=1;endArrow=block;dashed=1;elbow=vertical;endFill=1;dashPattern=6 4;rounded=0;fontSize=12;" parent="Jv6C8LjqqRdF4ndWvxd_-0" source="Zt4jJr7SUkMoKh3GxuXT-4" target="Zt4jJr7SUkMoKh3GxuXT-6" edge="1">
          <mxGeometry width="160" relative="1" as="geometry">
            <mxPoint x="106.5" y="453.5" as="sourcePoint" />
            <mxPoint x="339.03971119133575" y="502" as="targetPoint" />
          </mxGeometry>
        </mxCell>
        <mxCell id="Zt4jJr7SUkMoKh3GxuXT-14" value="" style="html=1;endArrow=open;elbow=vertical;endFill=0;dashed=1;dashPattern=1 4;rounded=0;fillColor=#00b9f2;" parent="Jv6C8LjqqRdF4ndWvxd_-0" source="Zt4jJr7SUkMoKh3GxuXT-7" target="Zt4jJr7SUkMoKh3GxuXT-9" edge="1">
          <mxGeometry width="160" relative="1" as="geometry">
            <mxPoint x="363.9985714285716" y="245.5" as="sourcePoint" />
            <mxPoint x="510.2612751677856" y="355.5" as="targetPoint" />
          </mxGeometry>
        </mxCell>
        <mxCell id="Zt4jJr7SUkMoKh3GxuXT-16" value="Flow Action" style="html=1;outlineConnect=0;whiteSpace=wrap;fillColor=#d5e8d4;shape=mxgraph.archimate3.application;appType=comp;archiType=square;strokeColor=#82b366;verticalAlign=top;" parent="Jv6C8LjqqRdF4ndWvxd_-0" vertex="1">
          <mxGeometry x="377" y="351" width="245" height="104" as="geometry" />
        </mxCell>
        <mxCell id="Zt4jJr7SUkMoKh3GxuXT-19" value="&amp;lt;Create or update a File&amp;gt;" style="html=1;outlineConnect=0;whiteSpace=wrap;fillColor=#d5e8d4;shape=mxgraph.archimate3.application;appType=proc;archiType=rounded;strokeColor=#82b366;" parent="Jv6C8LjqqRdF4ndWvxd_-0" vertex="1">
          <mxGeometry x="412" y="380" width="175" height="46" as="geometry" />
        </mxCell>
        <mxCell id="Zt4jJr7SUkMoKh3GxuXT-20" value="" style="html=1;endArrow=block;dashed=1;elbow=vertical;endFill=1;dashPattern=6 4;rounded=0;fontSize=12;" parent="Jv6C8LjqqRdF4ndWvxd_-0" source="Zt4jJr7SUkMoKh3GxuXT-6" target="Zt4jJr7SUkMoKh3GxuXT-19" edge="1">
          <mxGeometry width="160" relative="1" as="geometry">
            <mxPoint x="686" y="467" as="sourcePoint" />
            <mxPoint x="818" y="473" as="targetPoint" />
          </mxGeometry>
        </mxCell>
        <mxCell id="Zt4jJr7SUkMoKh3GxuXT-25" value="&lt;div style=&quot;box-sizing: border-box ; width: 100% ; background: #e4e4e4 ; padding: 2px&quot;&gt;&amp;lt;&amp;nbsp;sys_update_xml&amp;nbsp;&amp;gt;&lt;/div&gt;&lt;table style=&quot;width: 100% ; font-size: 1em&quot; cellpadding=&quot;2&quot; cellspacing=&quot;0&quot;&gt;&lt;tbody&gt;&lt;tr&gt;&lt;td&gt;PK&lt;/td&gt;&lt;td&gt;sys_id&lt;/td&gt;&lt;/tr&gt;&lt;tr&gt;&lt;td&gt;&lt;/td&gt;&lt;td&gt;payload&lt;br&gt;name&lt;/td&gt;&lt;/tr&gt;&lt;tr&gt;&lt;td&gt;&lt;br&gt;&lt;/td&gt;&lt;td&gt;&lt;br&gt;&lt;/td&gt;&lt;/tr&gt;&lt;tr&gt;&lt;td&gt;&lt;br&gt;&lt;/td&gt;&lt;td&gt;&lt;/td&gt;&lt;/tr&gt;&lt;/tbody&gt;&lt;/table&gt;" style="verticalAlign=top;align=left;overflow=fill;html=1;rounded=0;shadow=0;comic=0;labelBackgroundColor=none;strokeWidth=1;fontFamily=Verdana;fontSize=12" parent="Jv6C8LjqqRdF4ndWvxd_-0" vertex="1">
          <mxGeometry x="470" y="155" width="134" height="90" as="geometry" />
        </mxCell>
        <mxCell id="Zt4jJr7SUkMoKh3GxuXT-26" value="" style="html=1;endArrow=open;elbow=vertical;endFill=0;dashed=1;dashPattern=1 4;rounded=0;fillColor=#00b9f2;" parent="Jv6C8LjqqRdF4ndWvxd_-0" source="Zt4jJr7SUkMoKh3GxuXT-9" target="Zt4jJr7SUkMoKh3GxuXT-25" edge="1">
          <mxGeometry width="160" relative="1" as="geometry">
            <mxPoint x="261" y="127" as="sourcePoint" />
            <mxPoint x="347" y="127" as="targetPoint" />
          </mxGeometry>
        </mxCell>
        <mxCell id="Jv6C8LjqqRdF4ndWvxd_-2" value="GitHub" style="swimlane;" vertex="1" collapsed="1" parent="Zt4jJr7SUkMoKh3GxuXT-1">
          <mxGeometry x="948" y="67" width="131" height="63" as="geometry">
            <mxRectangle x="948" y="67" width="190" height="513" as="alternateBounds" />
          </mxGeometry>
        </mxCell>
        <mxCell id="Jv6C8LjqqRdF4ndWvxd_-3" value="Source Code Commit" style="html=1;outlineConnect=0;whiteSpace=wrap;fillColor=#d5e8d4;shape=mxgraph.archimate3.application;appType=proc;archiType=rounded;strokeColor=#82b366;verticalAlign=top;" vertex="1" parent="Jv6C8LjqqRdF4ndWvxd_-2">
          <mxGeometry x="21" y="341" width="160" height="114" as="geometry" />
        </mxCell>
        <mxCell id="Zt4jJr7SUkMoKh3GxuXT-11" value="API" style="html=1;outlineConnect=0;whiteSpace=wrap;fillColor=#dae8fc;shape=mxgraph.archimate3.application;appType=interface;archiType=square;strokeColor=#6c8ebf;verticalAlign=middle;" parent="Jv6C8LjqqRdF4ndWvxd_-2" vertex="1">
          <mxGeometry x="62" y="384" width="72" height="35" as="geometry" />
        </mxCell>
        <mxCell id="Zt4jJr7SUkMoKh3GxuXT-15" value="" style="html=1;endArrow=block;dashed=1;elbow=vertical;endFill=1;dashPattern=6 4;rounded=0;fontSize=12;" parent="Zt4jJr7SUkMoKh3GxuXT-1" source="Zt4jJr7SUkMoKh3GxuXT-19" target="Zt4jJr7SUkMoKh3GxuXT-11" edge="1">
          <mxGeometry width="160" relative="1" as="geometry">
            <mxPoint x="714" y="696.5239179954442" as="sourcePoint" />
            <mxPoint x="718.5" y="660.6455445544555" as="targetPoint" />
          </mxGeometry>
        </mxCell>
      </root>
    </mxGraphModel>
  </diagram>
  <diagram name="SnUpdate" id="tdeDllHcojzimRUx3aYF">
    <mxGraphModel dx="1330" dy="959" grid="0" gridSize="10" guides="1" tooltips="1" connect="1" arrows="1" fold="1" page="1" pageScale="1" pageWidth="1169" pageHeight="827" math="0" shadow="0">
      <root>
        <mxCell id="0" />
        <mxCell id="1" parent="0" />
        <mxCell id="HnHZtSFfSMReXQ9yPPB1-2" value="ServiceNow object" style="html=1;outlineConnect=0;whiteSpace=wrap;fillColor=#d5e8d4;shape=mxgraph.archimate3.application;appType=comp;archiType=square;strokeColor=#82b366;verticalAlign=middle;align=center;" parent="1" vertex="1">
          <mxGeometry x="387" y="268.25" width="151" height="71.5" as="geometry" />
        </mxCell>
        <mxCell id="HnHZtSFfSMReXQ9yPPB1-6" value="ServiceNow object created/updated" style="html=1;outlineConnect=0;whiteSpace=wrap;fillColor=#d5e8d4;shape=mxgraph.archimate3.event;strokeColor=#82b366;" parent="1" vertex="1">
          <mxGeometry x="171" y="275.5" width="136" height="57" as="geometry" />
        </mxCell>
        <mxCell id="HnHZtSFfSMReXQ9yPPB1-7" value="" style="edgeStyle=none;rounded=0;orthogonalLoop=1;jettySize=auto;html=1;fontSize=6;" parent="1" source="HnHZtSFfSMReXQ9yPPB1-6" target="HnHZtSFfSMReXQ9yPPB1-2" edge="1">
          <mxGeometry relative="1" as="geometry">
            <mxPoint x="365.5" y="208.25" as="sourcePoint" />
            <mxPoint x="415.40614886731373" y="292.25" as="targetPoint" />
          </mxGeometry>
        </mxCell>
        <mxCell id="HnHZtSFfSMReXQ9yPPB1-8" value="&lt;div style=&quot;box-sizing: border-box ; width: 100% ; background: #e4e4e4 ; padding: 2px&quot;&gt;&amp;lt;&amp;nbsp;sys_update_set&amp;nbsp;&amp;gt;&lt;/div&gt;&lt;table style=&quot;width: 100% ; font-size: 1em&quot; cellpadding=&quot;2&quot; cellspacing=&quot;0&quot;&gt;&lt;tbody&gt;&lt;tr&gt;&lt;td&gt;PK&lt;/td&gt;&lt;td&gt;sys_id&lt;/td&gt;&lt;/tr&gt;&lt;tr&gt;&lt;td&gt;&lt;/td&gt;&lt;td&gt;state&lt;/td&gt;&lt;/tr&gt;&lt;tr&gt;&lt;td&gt;&lt;br&gt;&lt;/td&gt;&lt;td&gt;&lt;br&gt;&lt;/td&gt;&lt;/tr&gt;&lt;tr&gt;&lt;td&gt;&lt;br&gt;&lt;/td&gt;&lt;td&gt;&lt;/td&gt;&lt;/tr&gt;&lt;/tbody&gt;&lt;/table&gt;" style="verticalAlign=top;align=left;overflow=fill;html=1;rounded=0;shadow=0;comic=0;labelBackgroundColor=none;strokeWidth=1;fontFamily=Verdana;fontSize=12" parent="1" vertex="1">
          <mxGeometry x="809" y="169" width="134" height="90" as="geometry" />
        </mxCell>
        <mxCell id="HnHZtSFfSMReXQ9yPPB1-13" value="" style="html=1;endArrow=open;elbow=vertical;endFill=0;dashed=1;dashPattern=1 4;rounded=0;fillColor=#00b9f2;" parent="1" source="HnHZtSFfSMReXQ9yPPB1-2" target="w_9lB5d_g-edfzFSBor1-1" edge="1">
          <mxGeometry width="160" relative="1" as="geometry">
            <mxPoint x="595.9985714285716" y="295.25" as="sourcePoint" />
            <mxPoint x="742.2612751677856" y="405.25" as="targetPoint" />
          </mxGeometry>
        </mxCell>
        <mxCell id="w_9lB5d_g-edfzFSBor1-1" value="&lt;div style=&quot;box-sizing: border-box ; width: 100% ; background: #e4e4e4 ; padding: 2px&quot;&gt;&amp;lt;&amp;nbsp;sys_update_xml&amp;nbsp;&amp;gt;&lt;/div&gt;&lt;table style=&quot;width: 100% ; font-size: 1em&quot; cellpadding=&quot;2&quot; cellspacing=&quot;0&quot;&gt;&lt;tbody&gt;&lt;tr&gt;&lt;td&gt;PK&lt;/td&gt;&lt;td&gt;sys_id&lt;/td&gt;&lt;/tr&gt;&lt;tr&gt;&lt;td&gt;&lt;/td&gt;&lt;td&gt;payload&lt;br&gt;name&lt;/td&gt;&lt;/tr&gt;&lt;tr&gt;&lt;td&gt;&lt;br&gt;&lt;/td&gt;&lt;td&gt;&lt;br&gt;&lt;/td&gt;&lt;/tr&gt;&lt;tr&gt;&lt;td&gt;&lt;br&gt;&lt;/td&gt;&lt;td&gt;&lt;/td&gt;&lt;/tr&gt;&lt;/tbody&gt;&lt;/table&gt;" style="verticalAlign=top;align=left;overflow=fill;html=1;rounded=0;shadow=0;comic=0;labelBackgroundColor=none;strokeWidth=1;fontFamily=Verdana;fontSize=12" parent="1" vertex="1">
          <mxGeometry x="618" y="259" width="134" height="90" as="geometry" />
        </mxCell>
        <mxCell id="w_9lB5d_g-edfzFSBor1-2" value="" style="html=1;endArrow=open;elbow=vertical;endFill=0;dashed=1;dashPattern=1 4;rounded=0;fillColor=#00b9f2;" parent="1" source="w_9lB5d_g-edfzFSBor1-1" target="HnHZtSFfSMReXQ9yPPB1-8" edge="1">
          <mxGeometry width="160" relative="1" as="geometry">
            <mxPoint x="720" y="182.75" as="sourcePoint" />
            <mxPoint x="579" y="176.75" as="targetPoint" />
          </mxGeometry>
        </mxCell>
      </root>
    </mxGraphModel>
  </diagram>
  <diagram name="Copy of Copy of Page-1" id="8cnrJujduX2VeUKDUikc">
    <mxGraphModel dx="931" dy="671" grid="0" gridSize="10" guides="1" tooltips="1" connect="1" arrows="1" fold="1" page="1" pageScale="1" pageWidth="1169" pageHeight="827" math="0" shadow="0">
      <root>
        <mxCell id="0cq8JgJz1qwuGxeb9Wd8-0" />
        <mxCell id="0cq8JgJz1qwuGxeb9Wd8-1" parent="0cq8JgJz1qwuGxeb9Wd8-0" />
        <mxCell id="0cq8JgJz1qwuGxeb9Wd8-2" value="Script Include" style="html=1;outlineConnect=0;whiteSpace=wrap;fillColor=#fff2cc;shape=mxgraph.archimate3.application;appType=comp;archiType=square;strokeColor=#d6b656;verticalAlign=bottom;align=right;dashed=1;" parent="0cq8JgJz1qwuGxeb9Wd8-1" vertex="1">
          <mxGeometry x="400" y="236" width="335" height="253" as="geometry" />
        </mxCell>
        <mxCell id="0cq8JgJz1qwuGxeb9Wd8-3" value="Business Rule" style="html=1;outlineConnect=0;whiteSpace=wrap;fillColor=#d5e8d4;shape=mxgraph.archimate3.application;appType=comp;archiType=square;strokeColor=#82b366;verticalAlign=top;align=left;" parent="0cq8JgJz1qwuGxeb9Wd8-1" vertex="1">
          <mxGeometry x="179" y="176.5" width="307" height="110" as="geometry" />
        </mxCell>
        <mxCell id="0cq8JgJz1qwuGxeb9Wd8-4" value="&amp;lt;Commit2GitRepository&amp;gt;" style="html=1;outlineConnect=0;whiteSpace=wrap;fillColor=#d5e8d4;shape=mxgraph.archimate3.application;appType=proc;archiType=rounded;strokeColor=#82b366;" parent="0cq8JgJz1qwuGxeb9Wd8-1" vertex="1">
          <mxGeometry x="202.5" y="200.5" width="260" height="58" as="geometry" />
        </mxCell>
        <mxCell id="0cq8JgJz1qwuGxeb9Wd8-5" value="SubFlow" style="html=1;outlineConnect=0;whiteSpace=wrap;fillColor=#d5e8d4;shape=mxgraph.archimate3.application;appType=comp;archiType=square;strokeColor=#82b366;verticalAlign=top;align=left;" parent="0cq8JgJz1qwuGxeb9Wd8-1" vertex="1">
          <mxGeometry x="179" y="309" width="306" height="102" as="geometry" />
        </mxCell>
        <mxCell id="0cq8JgJz1qwuGxeb9Wd8-6" value="&amp;lt;ALDI DevOps resume GitLab Job&amp;gt;" style="html=1;outlineConnect=0;whiteSpace=wrap;fillColor=#d5e8d4;shape=mxgraph.archimate3.application;appType=proc;archiType=rounded;strokeColor=#82b366;verticalAlign=middle;" parent="0cq8JgJz1qwuGxeb9Wd8-1" vertex="1">
          <mxGeometry x="205" y="331.5" width="260" height="58.5" as="geometry" />
        </mxCell>
        <mxCell id="0cq8JgJz1qwuGxeb9Wd8-7" value="Update Set &lt;br&gt;completed" style="html=1;outlineConnect=0;whiteSpace=wrap;fillColor=#d5e8d4;shape=mxgraph.archimate3.event;strokeColor=#82b366;" parent="0cq8JgJz1qwuGxeb9Wd8-1" vertex="1">
          <mxGeometry x="264" y="46.5" width="136" height="57" as="geometry" />
        </mxCell>
        <mxCell id="0cq8JgJz1qwuGxeb9Wd8-8" value="" style="edgeStyle=none;rounded=0;orthogonalLoop=1;jettySize=auto;html=1;fontSize=6;" parent="0cq8JgJz1qwuGxeb9Wd8-1" source="0cq8JgJz1qwuGxeb9Wd8-7" target="0cq8JgJz1qwuGxeb9Wd8-4" edge="1">
          <mxGeometry relative="1" as="geometry">
            <mxPoint x="282.5" y="116.5" as="sourcePoint" />
            <mxPoint x="327.5" y="116.5" as="targetPoint" />
          </mxGeometry>
        </mxCell>
        <mxCell id="0cq8JgJz1qwuGxeb9Wd8-9" value="&lt;div style=&quot;box-sizing: border-box ; width: 100% ; background: #e4e4e4 ; padding: 2px&quot;&gt;&amp;lt;&amp;nbsp;sys_update_set&amp;nbsp;&amp;gt;&lt;/div&gt;&lt;table style=&quot;width: 100% ; font-size: 1em&quot; cellpadding=&quot;2&quot; cellspacing=&quot;0&quot;&gt;&lt;tbody&gt;&lt;tr&gt;&lt;td&gt;PK&lt;/td&gt;&lt;td&gt;sys_id&lt;/td&gt;&lt;/tr&gt;&lt;tr&gt;&lt;td&gt;&lt;/td&gt;&lt;td&gt;state&lt;/td&gt;&lt;/tr&gt;&lt;tr&gt;&lt;td&gt;&lt;br&gt;&lt;/td&gt;&lt;td&gt;&lt;br&gt;&lt;/td&gt;&lt;/tr&gt;&lt;tr&gt;&lt;td&gt;&lt;br&gt;&lt;/td&gt;&lt;td&gt;&lt;/td&gt;&lt;/tr&gt;&lt;/tbody&gt;&lt;/table&gt;" style="verticalAlign=top;align=left;overflow=fill;html=1;rounded=0;shadow=0;comic=0;labelBackgroundColor=none;strokeWidth=1;fontFamily=Verdana;fontSize=12" parent="0cq8JgJz1qwuGxeb9Wd8-1" vertex="1">
          <mxGeometry x="486" y="30" width="134" height="90" as="geometry" />
        </mxCell>
        <mxCell id="0cq8JgJz1qwuGxeb9Wd8-10" value="GitLab" style="swimlane;" parent="0cq8JgJz1qwuGxeb9Wd8-1" vertex="1">
          <mxGeometry x="866" y="224.5" width="121" height="90" as="geometry" />
        </mxCell>
        <mxCell id="0cq8JgJz1qwuGxeb9Wd8-11" value="API" style="html=1;outlineConnect=0;whiteSpace=wrap;fillColor=#dae8fc;shape=mxgraph.archimate3.application;appType=interface;archiType=square;strokeColor=#6c8ebf;verticalAlign=middle;" parent="0cq8JgJz1qwuGxeb9Wd8-10" vertex="1">
          <mxGeometry x="24.5" y="35.5" width="72" height="35" as="geometry" />
        </mxCell>
        <mxCell id="0cq8JgJz1qwuGxeb9Wd8-12" value="" style="html=1;endArrow=block;dashed=1;elbow=vertical;endFill=1;dashPattern=6 4;rounded=0;fontSize=12;" parent="0cq8JgJz1qwuGxeb9Wd8-1" source="0cq8JgJz1qwuGxeb9Wd8-4" target="0cq8JgJz1qwuGxeb9Wd8-6" edge="1">
          <mxGeometry width="160" relative="1" as="geometry">
            <mxPoint x="255.5" y="411.5" as="sourcePoint" />
            <mxPoint x="488.03971119133575" y="460" as="targetPoint" />
          </mxGeometry>
        </mxCell>
        <mxCell id="0cq8JgJz1qwuGxeb9Wd8-13" value="ALDIDevOpsSrGitLab" style="html=1;outlineConnect=0;whiteSpace=wrap;fillColor=#d5e8d4;shape=mxgraph.archimate3.application;appType=comp;archiType=square;strokeColor=#82b366;verticalAlign=middle;" parent="0cq8JgJz1qwuGxeb9Wd8-1" vertex="1">
          <mxGeometry x="529" y="411" width="190" height="52" as="geometry" />
        </mxCell>
        <mxCell id="0cq8JgJz1qwuGxeb9Wd8-14" value="" style="html=1;endArrow=open;elbow=vertical;endFill=0;dashed=1;dashPattern=1 4;rounded=0;fillColor=#00b9f2;" parent="0cq8JgJz1qwuGxeb9Wd8-1" source="0cq8JgJz1qwuGxeb9Wd8-7" target="0cq8JgJz1qwuGxeb9Wd8-9" edge="1">
          <mxGeometry width="160" relative="1" as="geometry">
            <mxPoint x="512.9985714285716" y="203.5" as="sourcePoint" />
            <mxPoint x="659.2612751677856" y="313.5" as="targetPoint" />
          </mxGeometry>
        </mxCell>
        <mxCell id="0cq8JgJz1qwuGxeb9Wd8-15" value="" style="html=1;endArrow=block;dashed=1;elbow=vertical;endFill=1;dashPattern=6 4;rounded=0;fontSize=12;" parent="0cq8JgJz1qwuGxeb9Wd8-1" source="0cq8JgJz1qwuGxeb9Wd8-16" target="0cq8JgJz1qwuGxeb9Wd8-11" edge="1">
          <mxGeometry width="160" relative="1" as="geometry">
            <mxPoint x="714" y="615.5239179954442" as="sourcePoint" />
            <mxPoint x="718.5" y="579.6455445544555" as="targetPoint" />
          </mxGeometry>
        </mxCell>
        <mxCell id="0cq8JgJz1qwuGxeb9Wd8-16" value="Flow Action" style="html=1;outlineConnect=0;whiteSpace=wrap;fillColor=#d5e8d4;shape=mxgraph.archimate3.application;appType=comp;archiType=square;strokeColor=#82b366;verticalAlign=top;" parent="0cq8JgJz1qwuGxeb9Wd8-1" vertex="1">
          <mxGeometry x="529" y="176.5" width="300" height="202" as="geometry" />
        </mxCell>
        <mxCell id="0cq8JgJz1qwuGxeb9Wd8-17" value="&amp;lt;ALDI&amp;nbsp;DevOps Get Job response&amp;gt;" style="html=1;outlineConnect=0;whiteSpace=wrap;fillColor=#d5e8d4;shape=mxgraph.archimate3.application;appType=proc;archiType=rounded;strokeColor=#82b366;" parent="0cq8JgJz1qwuGxeb9Wd8-1" vertex="1">
          <mxGeometry x="541" y="259.5" width="276" height="46" as="geometry" />
        </mxCell>
        <mxCell id="0cq8JgJz1qwuGxeb9Wd8-18" value="&amp;lt;ALDI&amp;nbsp;DevOps Get Artifact as Table Attachment&amp;gt;" style="html=1;outlineConnect=0;whiteSpace=wrap;fillColor=#d5e8d4;shape=mxgraph.archimate3.application;appType=proc;archiType=rounded;strokeColor=#82b366;" parent="0cq8JgJz1qwuGxeb9Wd8-1" vertex="1">
          <mxGeometry x="541" y="200.5" width="276" height="46" as="geometry" />
        </mxCell>
        <mxCell id="0cq8JgJz1qwuGxeb9Wd8-19" value="&amp;lt;ALDI&amp;nbsp;DevOps GitLab REST call&amp;gt;" style="html=1;outlineConnect=0;whiteSpace=wrap;fillColor=#d5e8d4;shape=mxgraph.archimate3.application;appType=proc;archiType=rounded;strokeColor=#82b366;" parent="0cq8JgJz1qwuGxeb9Wd8-1" vertex="1">
          <mxGeometry x="540" y="318.5" width="276" height="46" as="geometry" />
        </mxCell>
        <mxCell id="0cq8JgJz1qwuGxeb9Wd8-20" value="" style="html=1;endArrow=block;dashed=1;elbow=vertical;endFill=1;dashPattern=6 4;rounded=0;fontSize=12;" parent="0cq8JgJz1qwuGxeb9Wd8-1" source="0cq8JgJz1qwuGxeb9Wd8-6" target="0cq8JgJz1qwuGxeb9Wd8-19" edge="1">
          <mxGeometry width="160" relative="1" as="geometry">
            <mxPoint x="835" y="425" as="sourcePoint" />
            <mxPoint x="967" y="431" as="targetPoint" />
          </mxGeometry>
        </mxCell>
        <mxCell id="0cq8JgJz1qwuGxeb9Wd8-21" value="" style="html=1;endArrow=block;dashed=1;elbow=vertical;endFill=1;dashPattern=6 4;rounded=0;fontSize=12;" parent="0cq8JgJz1qwuGxeb9Wd8-1" source="0cq8JgJz1qwuGxeb9Wd8-6" target="0cq8JgJz1qwuGxeb9Wd8-17" edge="1">
          <mxGeometry width="160" relative="1" as="geometry">
            <mxPoint x="388" y="606" as="sourcePoint" />
            <mxPoint x="628" y="506" as="targetPoint" />
          </mxGeometry>
        </mxCell>
        <mxCell id="0cq8JgJz1qwuGxeb9Wd8-22" value="" style="html=1;endArrow=block;dashed=1;elbow=vertical;endFill=1;dashPattern=6 4;rounded=0;fontSize=12;" parent="0cq8JgJz1qwuGxeb9Wd8-1" source="0cq8JgJz1qwuGxeb9Wd8-4" target="0cq8JgJz1qwuGxeb9Wd8-18" edge="1">
          <mxGeometry width="160" relative="1" as="geometry">
            <mxPoint x="330" y="277" as="sourcePoint" />
            <mxPoint x="274" y="441" as="targetPoint" />
          </mxGeometry>
        </mxCell>
        <mxCell id="0cq8JgJz1qwuGxeb9Wd8-23" value="" style="html=1;endArrow=block;dashed=1;elbow=vertical;endFill=1;dashPattern=6 4;rounded=0;fontSize=12;" parent="0cq8JgJz1qwuGxeb9Wd8-1" source="0cq8JgJz1qwuGxeb9Wd8-4" target="0cq8JgJz1qwuGxeb9Wd8-17" edge="1">
          <mxGeometry width="160" relative="1" as="geometry">
            <mxPoint x="470" y="242" as="sourcePoint" />
            <mxPoint x="551" y="239" as="targetPoint" />
          </mxGeometry>
        </mxCell>
        <mxCell id="0cq8JgJz1qwuGxeb9Wd8-24" value="Branch&lt;br&gt;and only after pipeline to Master?" style="strokeWidth=1;shadow=0;dashed=0;align=center;html=1;shape=mxgraph.mockup.text.stickyNote2;fontColor=#666666;mainText=;fontSize=17;whiteSpace=wrap;fillColor=#ffffcc;strokeColor=#F62E00;" parent="0cq8JgJz1qwuGxeb9Wd8-1" vertex="1">
          <mxGeometry x="20" y="40" width="230" height="121" as="geometry" />
        </mxCell>
        <mxCell id="0cq8JgJz1qwuGxeb9Wd8-25" value="&lt;div style=&quot;box-sizing: border-box ; width: 100% ; background: #e4e4e4 ; padding: 2px&quot;&gt;&amp;lt;&amp;nbsp;sys_update_xml&amp;nbsp;&amp;gt;&lt;/div&gt;&lt;table style=&quot;width: 100% ; font-size: 1em&quot; cellpadding=&quot;2&quot; cellspacing=&quot;0&quot;&gt;&lt;tbody&gt;&lt;tr&gt;&lt;td&gt;PK&lt;/td&gt;&lt;td&gt;sys_id&lt;/td&gt;&lt;/tr&gt;&lt;tr&gt;&lt;td&gt;&lt;/td&gt;&lt;td&gt;payload&lt;br&gt;name&lt;/td&gt;&lt;/tr&gt;&lt;tr&gt;&lt;td&gt;&lt;br&gt;&lt;/td&gt;&lt;td&gt;&lt;br&gt;&lt;/td&gt;&lt;/tr&gt;&lt;tr&gt;&lt;td&gt;&lt;br&gt;&lt;/td&gt;&lt;td&gt;&lt;/td&gt;&lt;/tr&gt;&lt;/tbody&gt;&lt;/table&gt;" style="verticalAlign=top;align=left;overflow=fill;html=1;rounded=0;shadow=0;comic=0;labelBackgroundColor=none;strokeWidth=1;fontFamily=Verdana;fontSize=12" parent="0cq8JgJz1qwuGxeb9Wd8-1" vertex="1">
          <mxGeometry x="695" y="30" width="134" height="90" as="geometry" />
        </mxCell>
        <mxCell id="0cq8JgJz1qwuGxeb9Wd8-26" value="" style="html=1;endArrow=open;elbow=vertical;endFill=0;dashed=1;dashPattern=1 4;rounded=0;fillColor=#00b9f2;" parent="0cq8JgJz1qwuGxeb9Wd8-1" source="0cq8JgJz1qwuGxeb9Wd8-9" target="0cq8JgJz1qwuGxeb9Wd8-25" edge="1">
          <mxGeometry width="160" relative="1" as="geometry">
            <mxPoint x="410" y="85" as="sourcePoint" />
            <mxPoint x="496" y="85" as="targetPoint" />
          </mxGeometry>
        </mxCell>
      </root>
    </mxGraphModel>
  </diagram>
  <diagram id="R7vmlJIEVdFfddHW6sNh" name="Page-3">
    <mxGraphModel dx="931" dy="671" grid="1" gridSize="10" guides="1" tooltips="1" connect="1" arrows="1" fold="1" page="1" pageScale="1" pageWidth="1169" pageHeight="827" math="0" shadow="0">
      <root>
        <mxCell id="0" />
        <mxCell id="1" parent="0" />
        <mxCell id="1mfr9o5DpSN9iCg4ki_g-2" value="codeworks&lt;br&gt;" style="strokeWidth=1;shadow=0;dashed=0;align=center;html=1;shape=mxgraph.mockup.text.stickyNote2;fontColor=#666666;mainText=;fontSize=17;whiteSpace=wrap;fillColor=#ffffcc;strokeColor=#F62E00;" parent="1" vertex="1">
          <mxGeometry x="440" y="220" width="200" height="200" as="geometry" />
        </mxCell>
      </root>
    </mxGraphModel>
  </diagram>
</mxfile>
